<svg xmlns="http://www.w3.org/2000/svg" xmlns:xlink="http://www.w3.org/1999/xlink" width="3086pt" height="1844pt" viewBox="0.00 0.00 3086.12 1844.00">
<g id="graph0" class="graph" transform="scale(1 1) rotate(0) translate(4 1840)">
<title>G</title>
<polygon fill="#ffffff" stroke="transparent" points="-4,4 -4,-1840 3082.1208,-1840 3082.1208,4 -4,4"></polygon>
<!-- AL -->
<g id="node1" class="node">
<title>AL</title>
<ellipse fill="none" stroke="#000000" cx="1272" cy="-1746" rx="27" ry="18"></ellipse>
<text text-anchor="middle" x="1272" y="-1741.8" font-family="Times,serif" font-size="14.00" fill="#000000">AL</text>
</g>
<!-- LA -->
<g id="node2" class="node">
<title>LA</title>
<ellipse fill="none" stroke="#000000" cx="1149" cy="-1674" rx="27" ry="18"></ellipse>
<text text-anchor="middle" x="1149" y="-1669.8" font-family="Times,serif" font-size="14.00" fill="#000000">LA</text>
</g>
<!-- AL&#45;&gt;LA -->
<g id="edge1" class="edge">
<title>AL-&gt;LA</title>
<path fill="none" stroke="#000000" d="M1249.4765,-1735.6842C1228.5646,-1724.6113 1197.7124,-1706.7742 1175.6254,-1693.1224"></path>
<polygon fill="#000000" stroke="#000000" points="1177.3768,-1690.0895 1167.0443,-1687.7466 1173.6606,-1696.0216 1177.3768,-1690.0895"></polygon>
</g>
<!-- LA&#45;&gt;AL -->
<g id="edge59" class="edge">
<title>LA-&gt;AL</title>
<path fill="none" stroke="#000000" d="M1171.6739,-1684.3955C1192.6065,-1695.4865 1223.4092,-1713.2982 1245.4483,-1726.9232"></path>
<polygon fill="#000000" stroke="#000000" points="1243.6776,-1729.944 1254.01,-1732.2879 1247.3944,-1724.0123 1243.6776,-1729.944"></polygon>
</g>
<!-- AK -->
<g id="node3" class="node">
<title>AK</title>
<ellipse fill="none" stroke="#000000" cx="2230" cy="-1602" rx="27" ry="18"></ellipse>
<text text-anchor="middle" x="2230" y="-1597.8" font-family="Times,serif" font-size="14.00" fill="#000000">AK</text>
</g>
<!-- LA&#45;&gt;AK -->
<g id="edge60" class="edge">
<title>LA-&gt;AK</title>
<path fill="none" stroke="#000000" d="M1175.9912,-1672.2023C1322.5341,-1662.4418 2022.2517,-1615.8371 2192.5664,-1604.4933"></path>
<polygon fill="#000000" stroke="#000000" points="2193.0379,-1607.9697 2202.7832,-1603.8128 2192.5727,-1600.9852 2193.0379,-1607.9697"></polygon>
</g>
<!-- AS -->
<g id="node6" class="node">
<title>AS</title>
<ellipse fill="none" stroke="#000000" cx="2453" cy="-162" rx="27" ry="18"></ellipse>
<text text-anchor="middle" x="2453" y="-157.8" font-family="Times,serif" font-size="14.00" fill="#000000">AS</text>
</g>
<!-- LA&#45;&gt;AS -->
<g id="edge61" class="edge">
<title>LA-&gt;AS</title>
<path fill="none" stroke="#000000" d="M1176.2975,-1673.2775C1325.6886,-1669.2327 2045.5393,-1648.5518 2266,-1620 2418.7517,-1600.2172 2472.129,-1625.9086 2605,-1548 2724.2737,-1478.0642 2810,-1452.2651 2810,-1314 2810,-1314 2810,-1314 2810,-810 2810,-712.5257 2848,-691.4743 2848,-594 2848,-594 2848,-594 2848,-306 2848,-248.1607 2806.1226,-241.0722 2754,-216 2645.3004,-163.7131 2599.3947,-218.2541 2485,-180 2483.9723,-179.6563 2482.94,-179.279 2481.9083,-178.8738"></path>
<polygon fill="#000000" stroke="#000000" points="2483.32,-175.6705 2472.7753,-174.6406 2480.3762,-182.0215 2483.32,-175.6705"></polygon>
</g>
<!-- AR -->
<g id="node9" class="node">
<title>AR</title>
<ellipse fill="none" stroke="#000000" cx="1149" cy="-1314" rx="27" ry="18"></ellipse>
<text text-anchor="middle" x="1149" y="-1309.8" font-family="Times,serif" font-size="14.00" fill="#000000">AR</text>
</g>
<!-- LA&#45;&gt;AR -->
<g id="edge63" class="edge">
<title>LA-&gt;AR</title>
<path fill="none" stroke="#000000" d="M1149,-1655.8146C1149,-1628.4983 1149,-1575.25 1149,-1530 1149,-1530 1149,-1530 1149,-1458 1149,-1417.876 1149,-1371.4631 1149,-1342.4177"></path>
<polygon fill="#000000" stroke="#000000" points="1152.5001,-1342.1853 1149,-1332.1854 1145.5001,-1342.1854 1152.5001,-1342.1853"></polygon>
</g>
<!-- AZ -->
<g id="node12" class="node">
<title>AZ</title>
<ellipse fill="none" stroke="#000000" cx="823" cy="-162" rx="27" ry="18"></ellipse>
<text text-anchor="middle" x="823" y="-157.8" font-family="Times,serif" font-size="14.00" fill="#000000">AZ</text>
</g>
<!-- LA&#45;&gt;AZ -->
<g id="edge62" class="edge">
<title>LA-&gt;AZ</title>
<path fill="none" stroke="#000000" d="M1121.9667,-1673.0395C962.1566,-1667.0132 148,-1631.339 148,-1530 148,-1530 148,-1530 148,-738 148,-609.9877 152,-578.0123 152,-450 152,-450 152,-450 152,-378 152,-278.9647 214.1415,-255.4047 305,-216 391.7144,-178.3926 682.2808,-166.1955 785.9005,-162.9873"></path>
<polygon fill="#000000" stroke="#000000" points="786.0084,-166.4858 795.8991,-162.6879 785.7988,-159.4889 786.0084,-166.4858"></polygon>
</g>
<!-- KS -->
<g id="node4" class="node">
<title>KS</title>
<ellipse fill="none" stroke="#000000" cx="2532" cy="-1530" rx="27" ry="18"></ellipse>
<text text-anchor="middle" x="2532" y="-1525.8" font-family="Times,serif" font-size="14.00" fill="#000000">KS</text>
</g>
<!-- AK&#45;&gt;KS -->
<g id="edge2" class="edge">
<title>AK-&gt;KS</title>
<path fill="none" stroke="#000000" d="M2255.4881,-1595.9234C2309.2588,-1583.1039 2434.4225,-1553.2635 2496.2005,-1538.535"></path>
<polygon fill="#000000" stroke="#000000" points="2497.3441,-1541.8605 2506.2598,-1536.1367 2495.7207,-1535.0513 2497.3441,-1541.8605"></polygon>
</g>
<!-- KY -->
<g id="node5" class="node">
<title>KY</title>
<ellipse fill="none" stroke="#000000" cx="2374" cy="-306" rx="27" ry="18"></ellipse>
<text text-anchor="middle" x="2374" y="-301.8" font-family="Times,serif" font-size="14.00" fill="#000000">KY</text>
</g>
<!-- AK&#45;&gt;KY -->
<g id="edge3" class="edge">
<title>AK-&gt;KY</title>
<path fill="none" stroke="#000000" d="M2257.1492,-1600.7145C2328.2503,-1596.8793 2517.8638,-1583.4971 2568,-1548 2694.2767,-1458.5945 2734,-1396.7229 2734,-1242 2734,-1242 2734,-1242 2734,-954 2734,-856.5257 2696,-835.4743 2696,-738 2696,-738 2696,-738 2696,-666 2696,-510.2053 2643.9248,-460.6423 2525,-360 2492.1115,-332.1675 2443.8068,-318.2518 2410.7421,-311.5981"></path>
<polygon fill="#000000" stroke="#000000" points="2411.0563,-308.0958 2400.5812,-309.6845 2409.7607,-314.9748 2411.0563,-308.0958"></polygon>
</g>
<!-- SC -->
<g id="node7" class="node">
<title>SC</title>
<ellipse fill="none" stroke="#000000" cx="2498" cy="-1458" rx="27" ry="18"></ellipse>
<text text-anchor="middle" x="2498" y="-1453.8" font-family="Times,serif" font-size="14.00" fill="#000000">SC</text>
</g>
<!-- KS&#45;&gt;SC -->
<g id="edge57" class="edge">
<title>KS-&gt;SC</title>
<path fill="none" stroke="#000000" d="M2523.7695,-1512.5708C2519.8021,-1504.1691 2514.9571,-1493.9091 2510.5433,-1484.5623"></path>
<polygon fill="#000000" stroke="#000000" points="2513.5896,-1482.8166 2506.1547,-1475.2687 2507.2599,-1485.8057 2513.5896,-1482.8166"></polygon>
</g>
<!-- SD -->
<g id="node8" class="node">
<title>SD</title>
<ellipse fill="none" stroke="#000000" cx="1619" cy="-90" rx="27" ry="18"></ellipse>
<text text-anchor="middle" x="1619" y="-85.8" font-family="Times,serif" font-size="14.00" fill="#000000">SD</text>
</g>
<!-- KS&#45;&gt;SD -->
<g id="edge58" class="edge">
<title>KS-&gt;SD</title>
<path fill="none" stroke="#000000" d="M2552.8786,-1518.442C2611.2691,-1484.4119 2772,-1378.3539 2772,-1242 2772,-1242 2772,-1242 2772,-954 2772,-809.2666 2924,-810.7334 2924,-666 2924,-666 2924,-666 2924,-234 2924,-178.1778 3462.7048,-259.1432 2489,-144 2168.0589,-106.0478 1777.1536,-93.8371 1656.3506,-90.8312"></path>
<polygon fill="#000000" stroke="#000000" points="1656.2422,-87.3277 1646.1601,-90.5838 1656.0722,-94.3256 1656.2422,-87.3277"></polygon>
</g>
<!-- AS&#45;&gt;SC -->
<g id="edge4" class="edge">
<title>AS-&gt;SC</title>
<path fill="none" stroke="#000000" d="M2480.0456,-163.915C2526.6414,-168.0764 2624.1582,-180.6098 2698,-216 2755.5857,-243.5992 2810,-242.1421 2810,-306 2810,-594 2810,-594 2810,-594 2810,-784.2343 2616.1374,-1232.894 2533,-1404 2528.1664,-1413.9481 2521.837,-1424.2778 2515.8915,-1433.2061"></path>
<polygon fill="#000000" stroke="#000000" points="2512.9051,-1431.3726 2510.1437,-1441.6013 2518.6811,-1435.3272 2512.9051,-1431.3726"></polygon>
</g>
<!-- AS&#45;&gt;SD -->
<g id="edge5" class="edge">
<title>AS-&gt;SD</title>
<path fill="none" stroke="#000000" d="M2426.1959,-159.686C2303.9162,-149.1295 1798.8462,-105.5263 1656.4972,-93.2372"></path>
<polygon fill="#000000" stroke="#000000" points="1656.3874,-89.7148 1646.1234,-92.3416 1655.7853,-96.6888 1656.3874,-89.7148"></polygon>
</g>
<!-- CA -->
<g id="node11" class="node">
<title>CA</title>
<ellipse fill="none" stroke="#000000" cx="1334" cy="-1386" rx="27" ry="18"></ellipse>
<text text-anchor="middle" x="1334" y="-1381.8" font-family="Times,serif" font-size="14.00" fill="#000000">CA</text>
</g>
<!-- SC&#45;&gt;CA -->
<g id="edge131" class="edge">
<title>SC-&gt;CA</title>
<path fill="none" stroke="#000000" d="M2470.9408,-1456.3262C2316.7303,-1446.7874 1549.4736,-1399.3283 1371.0954,-1388.2946"></path>
<polygon fill="#000000" stroke="#000000" points="1371.108,-1384.7887 1360.9109,-1387.6646 1370.6757,-1391.7754 1371.108,-1384.7887"></polygon>
</g>
<!-- CO -->
<g id="node13" class="node">
<title>CO</title>
<ellipse fill="none" stroke="#000000" cx="1978" cy="-450" rx="27" ry="18"></ellipse>
<text text-anchor="middle" x="1978" y="-445.8" font-family="Times,serif" font-size="14.00" fill="#000000">CO</text>
</g>
<!-- SC&#45;&gt;CO -->
<g id="edge132" class="edge">
<title>SC-&gt;CO</title>
<path fill="none" stroke="#000000" d="M2474.8842,-1448.2756C2419.1621,-1423.1132 2282,-1350.1873 2282,-1242 2282,-1242 2282,-1242 2282,-1170 2282,-1040.646 2240,-1011.354 2240,-882 2240,-882 2240,-882 2240,-594 2240,-492.5852 2087.3739,-462.0929 2015.1038,-453.3391"></path>
<polygon fill="#000000" stroke="#000000" points="2015.3825,-449.8483 2005.0518,-452.1994 2014.5938,-456.8038 2015.3825,-449.8483"></polygon>
</g>
<!-- CT -->
<g id="node17" class="node">
<title>CT</title>
<ellipse fill="none" stroke="#000000" cx="1898" cy="-1026" rx="27" ry="18"></ellipse>
<text text-anchor="middle" x="1898" y="-1021.8" font-family="Times,serif" font-size="14.00" fill="#000000">CT</text>
</g>
<!-- SC&#45;&gt;CT -->
<g id="edge133" class="edge">
<title>SC-&gt;CT</title>
<path fill="none" stroke="#000000" d="M2479.3853,-1444.5974C2392.5117,-1382.0484 2026.874,-1118.7893 1924.651,-1045.1887"></path>
<polygon fill="#000000" stroke="#000000" points="1926.5581,-1042.249 1916.3977,-1039.2463 1922.4679,-1047.9298 1926.5581,-1042.249"></polygon>
</g>
<!-- DC -->
<g id="node20" class="node">
<title>DC</title>
<ellipse fill="none" stroke="#000000" cx="601" cy="-1098" rx="27" ry="18"></ellipse>
<text text-anchor="middle" x="601" y="-1093.8" font-family="Times,serif" font-size="14.00" fill="#000000">DC</text>
</g>
<!-- SD&#45;&gt;DC -->
<g id="edge135" class="edge">
<title>SD-&gt;DC</title>
<path fill="none" stroke="#000000" d="M1591.8509,-90.779C1403.6732,-96.3841 297.379,-132.7396 176,-216 82.5965,-280.0705 105.4913,-359.4992 138,-468 144.6617,-490.234 320.39,-753.6519 424,-900 469.9192,-964.8605 474.2485,-987.3677 530,-1044 542.9227,-1057.1269 559.1644,-1069.7131 572.8512,-1079.4271"></path>
<polygon fill="#000000" stroke="#000000" points="571.2052,-1082.5452 581.4158,-1085.3727 575.1971,-1076.7949 571.2052,-1082.5452"></polygon>
</g>
<!-- DE -->
<g id="node41" class="node">
<title>DE</title>
<ellipse fill="none" stroke="#000000" cx="76" cy="-18" rx="27" ry="18"></ellipse>
<text text-anchor="middle" x="76" y="-13.8" font-family="Times,serif" font-size="14.00" fill="#000000">DE</text>
</g>
<!-- SD&#45;&gt;DE -->
<g id="edge134" class="edge">
<title>SD-&gt;DE</title>
<path fill="none" stroke="#000000" d="M1591.8918,-88.7351C1406.6611,-80.0918 328.4635,-29.7805 113.3365,-19.7422"></path>
<polygon fill="#000000" stroke="#000000" points="113.34,-16.2387 103.1877,-19.2686 113.0136,-23.231 113.34,-16.2387"></polygon>
</g>
<!-- RI -->
<g id="node10" class="node">
<title>RI</title>
<ellipse fill="none" stroke="#000000" cx="752" cy="-1242" rx="27" ry="18"></ellipse>
<text text-anchor="middle" x="752" y="-1237.8" font-family="Times,serif" font-size="14.00" fill="#000000">RI</text>
</g>
<!-- AR&#45;&gt;RI -->
<g id="edge6" class="edge">
<title>AR-&gt;RI</title>
<path fill="none" stroke="#000000" d="M1122.6443,-1309.2201C1053.5312,-1296.6858 866.9733,-1262.8516 788.0469,-1248.5375"></path>
<polygon fill="#000000" stroke="#000000" points="788.5513,-1245.0719 778.0872,-1246.7312 787.3021,-1251.9596 788.5513,-1245.0719"></polygon>
</g>
<!-- ID -->
<g id="node37" class="node">
<title>ID</title>
<ellipse fill="none" stroke="#000000" cx="656" cy="-1170" rx="27" ry="18"></ellipse>
<text text-anchor="middle" x="656" y="-1165.8" font-family="Times,serif" font-size="14.00" fill="#000000">ID</text>
</g>
<!-- RI&#45;&gt;ID -->
<g id="edge127" class="edge">
<title>RI-&gt;ID</title>
<path fill="none" stroke="#000000" d="M733.9431,-1228.4574C719.3275,-1217.4956 698.545,-1201.9088 682.1152,-1189.5864"></path>
<polygon fill="#000000" stroke="#000000" points="684.0759,-1186.682 673.9759,-1183.4819 679.8759,-1192.282 684.0759,-1186.682"></polygon>
</g>
<!-- IL -->
<g id="node38" class="node">
<title>IL</title>
<ellipse fill="none" stroke="#000000" cx="619" cy="-234" rx="27" ry="18"></ellipse>
<text text-anchor="middle" x="619" y="-229.8" font-family="Times,serif" font-size="14.00" fill="#000000">IL</text>
</g>
<!-- RI&#45;&gt;IL -->
<g id="edge128" class="edge">
<title>RI-&gt;IL</title>
<path fill="none" stroke="#000000" d="M724.7243,-1240.5263C616.6046,-1233.9549 224,-1202.8724 224,-1098 224,-1098 224,-1098 224,-954 224,-881.7316 200.2395,-863.6062 210,-792 237.9783,-586.7426 232.1311,-499.8016 385,-360 446.3193,-303.9223 537.1692,-264.3878 585.6543,-245.8732"></path>
<polygon fill="#000000" stroke="#000000" points="586.9161,-249.1381 595.0485,-242.3473 584.4563,-242.5845 586.9161,-249.1381"></polygon>
</g>
<!-- IN -->
<g id="node39" class="node">
<title>IN</title>
<ellipse fill="none" stroke="#000000" cx="997" cy="-738" rx="27" ry="18"></ellipse>
<text text-anchor="middle" x="997" y="-733.8" font-family="Times,serif" font-size="14.00" fill="#000000">IN</text>
</g>
<!-- RI&#45;&gt;IN -->
<g id="edge129" class="edge">
<title>RI-&gt;IN</title>
<path fill="none" stroke="#000000" d="M769.6222,-1227.9927C796.2352,-1206.1855 847.1595,-1161.8396 881,-1116 963.4545,-1004.3088 988.0266,-833.1781 994.7105,-766.2302"></path>
<polygon fill="#000000" stroke="#000000" points="998.2165,-766.3297 995.6674,-756.0461 991.2472,-765.6748 998.2165,-766.3297"></polygon>
</g>
<!-- IA -->
<g id="node40" class="node">
<title>IA</title>
<ellipse fill="none" stroke="#000000" cx="894" cy="-234" rx="27" ry="18"></ellipse>
<text text-anchor="middle" x="894" y="-229.8" font-family="Times,serif" font-size="14.00" fill="#000000">IA</text>
</g>
<!-- RI&#45;&gt;IA -->
<g id="edge130" class="edge">
<title>RI-&gt;IA</title>
<path fill="none" stroke="#000000" d="M741.9296,-1224.7988C723.4115,-1193.9308 681.7314,-1127.8922 637,-1080 587.3429,-1026.8341 559.0582,-1029.1157 514,-972 396.4305,-822.9691 317.5096,-762.2827 354,-576 373.9272,-474.272 364.6085,-428.9655 442,-360 504.9453,-303.9079 761.6021,-256.1488 857.5657,-239.9183"></path>
<polygon fill="#000000" stroke="#000000" points="858.3774,-243.3312 867.6618,-238.2272 857.2209,-236.4274 858.3774,-243.3312"></polygon>
</g>
<!-- CA&#45;&gt;AL -->
<g id="edge7" class="edge">
<title>CA-&gt;AL</title>
<path fill="none" stroke="#000000" d="M1327.1624,-1403.8833C1317.4965,-1430.8144 1301,-1483.577 1301,-1530 1301,-1602 1301,-1602 1301,-1602 1301,-1643.1099 1289.5009,-1689.5451 1280.9846,-1718.298"></path>
<polygon fill="#000000" stroke="#000000" points="1277.5803,-1717.4624 1278.0088,-1728.0486 1284.2755,-1719.5057 1277.5803,-1717.4624"></polygon>
</g>
<!-- CA&#45;&gt;AK -->
<g id="edge8" class="edge">
<title>CA-&gt;AK</title>
<path fill="none" stroke="#000000" d="M1332.6436,-1404.1307C1331.1936,-1438.3863 1333.5892,-1512.3693 1377,-1548 1408.9549,-1574.228 2031.8259,-1595.7177 2192.4642,-1600.8393"></path>
<polygon fill="#000000" stroke="#000000" points="2192.6866,-1604.348 2202.7923,-1601.1662 2192.9081,-1597.3515 2192.6866,-1604.348"></polygon>
</g>
<!-- CA&#45;&gt;AS -->
<g id="edge9" class="edge">
<title>CA-&gt;AS</title>
<path fill="none" stroke="#000000" d="M1361.1567,-1384.4731C1546.6814,-1373.3253 2620,-1297.116 2620,-1026 2620,-1026 2620,-1026 2620,-954 2620,-750.4619 2772,-725.5381 2772,-522 2772,-522 2772,-522 2772,-306 2772,-244.3887 2571.8243,-190.0274 2488.6134,-170.0915"></path>
<polygon fill="#000000" stroke="#000000" points="2489.372,-166.6745 2478.8349,-167.7787 2487.7607,-173.4865 2489.372,-166.6745"></polygon>
</g>
<!-- CA&#45;&gt;AR -->
<g id="edge11" class="edge">
<title>CA-&gt;AR</title>
<path fill="none" stroke="#000000" d="M1310.5696,-1376.8812C1277.9924,-1364.2025 1218.8601,-1341.1888 1181.88,-1326.7965"></path>
<polygon fill="#000000" stroke="#000000" points="1183.1201,-1323.5235 1172.5316,-1323.1582 1180.5813,-1330.0469 1183.1201,-1323.5235"></polygon>
</g>
<!-- CA&#45;&gt;AZ -->
<g id="edge10" class="edge">
<title>CA-&gt;AZ</title>
<path fill="none" stroke="#000000" d="M1306.9648,-1385.2971C1140.5254,-1380.6227 262,-1350.7966 262,-1242 262,-1242 262,-1242 262,-1170 262,-977.2586 224,-930.7414 224,-738 224,-738 224,-738 224,-666 224,-497.5397 141.7104,-415.3384 252,-288 322.7341,-206.3317 670.5939,-173.364 785.838,-164.5713"></path>
<polygon fill="#000000" stroke="#000000" points="786.2239,-168.0523 795.9356,-163.8177 785.7029,-161.0717 786.2239,-168.0523"></polygon>
</g>
<!-- OH -->
<g id="node14" class="node">
<title>OH</title>
<ellipse fill="none" stroke="#000000" cx="1541" cy="-378" rx="27" ry="18"></ellipse>
<text text-anchor="middle" x="1541" y="-373.8" font-family="Times,serif" font-size="14.00" fill="#000000">OH</text>
</g>
<!-- CO&#45;&gt;OH -->
<g id="edge12" class="edge">
<title>CO-&gt;OH</title>
<path fill="none" stroke="#000000" d="M1951.6478,-445.6582C1876.8937,-433.3417 1663.3571,-398.1595 1577.4504,-384.0056"></path>
<polygon fill="#000000" stroke="#000000" points="1577.8225,-380.5198 1567.3865,-382.3474 1576.6845,-387.4266 1577.8225,-380.5198"></polygon>
</g>
<!-- OK -->
<g id="node15" class="node">
<title>OK</title>
<ellipse fill="none" stroke="#000000" cx="2104" cy="-378" rx="27" ry="18"></ellipse>
<text text-anchor="middle" x="2104" y="-373.8" font-family="Times,serif" font-size="14.00" fill="#000000">OK</text>
</g>
<!-- CO&#45;&gt;OK -->
<g id="edge13" class="edge">
<title>CO-&gt;OK</title>
<path fill="none" stroke="#000000" d="M1998.5245,-438.2717C2019.2092,-426.4519 2051.3287,-408.0979 2074.6909,-394.7481"></path>
<polygon fill="#000000" stroke="#000000" points="2076.5383,-397.7236 2083.4843,-389.7233 2073.0653,-391.6459 2076.5383,-397.7236"></polygon>
</g>
<!-- OR -->
<g id="node16" class="node">
<title>OR</title>
<ellipse fill="none" stroke="#000000" cx="1469" cy="-378" rx="27" ry="18"></ellipse>
<text text-anchor="middle" x="1469" y="-373.8" font-family="Times,serif" font-size="14.00" fill="#000000">OR</text>
</g>
<!-- CO&#45;&gt;OR -->
<g id="edge14" class="edge">
<title>CO-&gt;OR</title>
<path fill="none" stroke="#000000" d="M1951.1346,-448.1708C1863.9856,-442.044 1589.8771,-421.2046 1505,-396 1503.0909,-395.4331 1501.1607,-394.7693 1499.2377,-394.0373"></path>
<polygon fill="#000000" stroke="#000000" points="1500.381,-390.7179 1489.8147,-389.9405 1497.5899,-397.1374 1500.381,-390.7179"></polygon>
</g>
<!-- HI -->
<g id="node36" class="node">
<title>HI</title>
<ellipse fill="none" stroke="#000000" cx="921" cy="-306" rx="27" ry="18"></ellipse>
<text text-anchor="middle" x="921" y="-301.8" font-family="Times,serif" font-size="14.00" fill="#000000">HI</text>
</g>
<!-- OH&#45;&gt;HI -->
<g id="edge113" class="edge">
<title>OH-&gt;HI</title>
<path fill="none" stroke="#000000" d="M1520.5914,-366.1637C1515.6307,-363.7505 1510.2413,-361.4954 1505,-360 1401.3716,-330.4338 1069.8489,-312.8427 958.1453,-307.6371"></path>
<polygon fill="#000000" stroke="#000000" points="958.1868,-304.1354 948.0365,-307.172 957.865,-311.128 958.1868,-304.1354"></polygon>
</g>
<!-- OK&#45;&gt;KS -->
<g id="edge114" class="edge">
<title>OK-&gt;KS</title>
<path fill="none" stroke="#000000" d="M2130.7206,-381.8885C2241.3842,-399.6355 2658,-483.3577 2658,-738 2658,-954 2658,-954 2658,-954 2658,-1155.8893 2656.3267,-1211.3345 2596,-1404 2584.4935,-1440.7484 2563.0401,-1479.7968 2548.1614,-1504.5125"></path>
<polygon fill="#000000" stroke="#000000" points="2545.0497,-1502.892 2542.8153,-1513.2485 2551.0205,-1506.5458 2545.0497,-1502.892"></polygon>
</g>
<!-- OK&#45;&gt;KY -->
<g id="edge115" class="edge">
<title>OK-&gt;KY</title>
<path fill="none" stroke="#000000" d="M2129.4009,-371.2264C2177.9691,-358.2749 2284.0649,-329.9827 2339.1889,-315.283"></path>
<polygon fill="#000000" stroke="#000000" points="2340.1027,-318.6617 2348.8632,-312.7031 2338.2991,-311.898 2340.1027,-318.6617"></polygon>
</g>
<!-- OR&#45;&gt;RI -->
<g id="edge116" class="edge">
<title>OR-&gt;RI</title>
<path fill="none" stroke="#000000" d="M1442.2019,-381.8518C1389.1411,-389.8711 1272.9827,-409.4965 1240,-432 1167.6944,-481.3328 1128,-506.4681 1128,-594 1128,-666 1128,-666 1128,-666 1128,-771.7828 997.3624,-981.4647 907,-1116 883.9325,-1150.3438 879.6866,-1161.4 848,-1188 828.617,-1204.2715 803.6182,-1218.1511 783.9902,-1227.7633"></path>
<polygon fill="#000000" stroke="#000000" points="782.353,-1224.6664 774.8343,-1232.1309 785.3669,-1230.9844 782.353,-1224.6664"></polygon>
</g>
<!-- TN -->
<g id="node18" class="node">
<title>TN</title>
<ellipse fill="none" stroke="#000000" cx="1898" cy="-954" rx="27" ry="18"></ellipse>
<text text-anchor="middle" x="1898" y="-949.8" font-family="Times,serif" font-size="14.00" fill="#000000">TN</text>
</g>
<!-- CT&#45;&gt;TN -->
<g id="edge15" class="edge">
<title>CT-&gt;TN</title>
<path fill="none" stroke="#000000" d="M1898,-1007.8314C1898,-1000.131 1898,-990.9743 1898,-982.4166"></path>
<polygon fill="#000000" stroke="#000000" points="1901.5001,-982.4132 1898,-972.4133 1894.5001,-982.4133 1901.5001,-982.4132"></polygon>
</g>
<!-- TX -->
<g id="node19" class="node">
<title>TX</title>
<ellipse fill="none" stroke="#000000" cx="2637" cy="-306" rx="27" ry="18"></ellipse>
<text text-anchor="middle" x="2637" y="-301.8" font-family="Times,serif" font-size="14.00" fill="#000000">TX</text>
</g>
<!-- CT&#45;&gt;TX -->
<g id="edge16" class="edge">
<title>CT-&gt;TX</title>
<path fill="none" stroke="#000000" d="M1924.1229,-1021.34C2053.5627,-996.617 2620,-868.6249 2620,-522 2620,-522 2620,-522 2620,-450 2620,-409.5973 2626.6819,-363.2552 2631.6674,-334.3013"></path>
<polygon fill="#000000" stroke="#000000" points="2635.1757,-334.5623 2633.4776,-324.1045 2628.2835,-333.3387 2635.1757,-334.5623"></polygon>
</g>
<!-- NE -->
<g id="node42" class="node">
<title>NE</title>
<ellipse fill="none" stroke="#000000" cx="1860" cy="-522" rx="27" ry="18"></ellipse>
<text text-anchor="middle" x="1860" y="-517.8" font-family="Times,serif" font-size="14.00" fill="#000000">NE</text>
</g>
<!-- TN&#45;&gt;NE -->
<g id="edge136" class="edge">
<title>TN-&gt;NE</title>
<path fill="none" stroke="#000000" d="M1913.4828,-939.0473C1958.0384,-894.1389 2080.0258,-756.8338 2026,-648 1998.208,-592.0135 1932.3305,-554.2101 1892.426,-535.5446"></path>
<polygon fill="#000000" stroke="#000000" points="1893.6733,-532.2671 1883.121,-531.3184 1890.7786,-538.6405 1893.6733,-532.2671"></polygon>
</g>
<!-- NV -->
<g id="node43" class="node">
<title>NV</title>
<ellipse fill="none" stroke="#000000" cx="1699" cy="-882" rx="27" ry="18"></ellipse>
<text text-anchor="middle" x="1699" y="-877.8" font-family="Times,serif" font-size="14.00" fill="#000000">NV</text>
</g>
<!-- TN&#45;&gt;NV -->
<g id="edge137" class="edge">
<title>TN-&gt;NV</title>
<path fill="none" stroke="#000000" d="M1873.996,-945.3151C1838.6401,-932.5231 1772.4324,-908.5685 1732.3675,-894.0727"></path>
<polygon fill="#000000" stroke="#000000" points="1733.3737,-890.7147 1722.7794,-890.6036 1730.9921,-897.2971 1733.3737,-890.7147"></polygon>
</g>
<!-- NH -->
<g id="node44" class="node">
<title>NH</title>
<ellipse fill="none" stroke="#000000" cx="959" cy="-522" rx="27" ry="18"></ellipse>
<text text-anchor="middle" x="959" y="-517.8" font-family="Times,serif" font-size="14.00" fill="#000000">NH</text>
</g>
<!-- TN&#45;&gt;NH -->
<g id="edge138" class="edge">
<title>TN-&gt;NH</title>
<path fill="none" stroke="#000000" d="M1870.9697,-952.7197C1717.1011,-945.1624 956.1823,-904.0936 889,-828 816.4169,-745.7892 901.1985,-603.7455 940.7946,-546.7336"></path>
<polygon fill="#000000" stroke="#000000" points="943.8165,-548.522 946.7306,-538.3358 938.1003,-544.4815 943.8165,-548.522"></polygon>
</g>
<!-- NJ -->
<g id="node45" class="node">
<title>NJ</title>
<ellipse fill="none" stroke="#000000" cx="1714" cy="-522" rx="27" ry="18"></ellipse>
<text text-anchor="middle" x="1714" y="-517.8" font-family="Times,serif" font-size="14.00" fill="#000000">NJ</text>
</g>
<!-- TN&#45;&gt;NJ -->
<g id="edge139" class="edge">
<title>TN-&gt;NJ</title>
<path fill="none" stroke="#000000" d="M1891.6707,-936.3446C1871.9336,-881.7963 1808.9361,-711.4686 1744,-576 1739.4584,-566.5255 1733.9993,-556.3942 1728.9901,-547.4963"></path>
<polygon fill="#000000" stroke="#000000" points="1731.9915,-545.6942 1723.9901,-538.7496 1725.9143,-549.1682 1731.9915,-545.6942"></polygon>
</g>
<!-- NM -->
<g id="node46" class="node">
<title>NM</title>
<ellipse fill="none" stroke="#000000" cx="1473" cy="-666" rx="27" ry="18"></ellipse>
<text text-anchor="middle" x="1473" y="-661.8" font-family="Times,serif" font-size="14.00" fill="#000000">NM</text>
</g>
<!-- TN&#45;&gt;NM -->
<g id="edge140" class="edge">
<title>TN-&gt;NM</title>
<path fill="none" stroke="#000000" d="M1871.4737,-950.1303C1817.6818,-941.9279 1697.9051,-921.7543 1663,-900 1577.4391,-846.6749 1513.0514,-741.0845 1486.4261,-692.0955"></path>
<polygon fill="#000000" stroke="#000000" points="1489.4103,-690.2538 1481.6094,-683.0847 1483.2369,-693.5538 1489.4103,-690.2538"></polygon>
</g>
<!-- NY -->
<g id="node47" class="node">
<title>NY</title>
<ellipse fill="none" stroke="#000000" cx="1786" cy="-522" rx="27" ry="18"></ellipse>
<text text-anchor="middle" x="1786" y="-517.8" font-family="Times,serif" font-size="14.00" fill="#000000">NY</text>
</g>
<!-- TN&#45;&gt;NY -->
<g id="edge141" class="edge">
<title>TN-&gt;NY</title>
<path fill="none" stroke="#000000" d="M1898,-935.8146C1898,-908.4983 1898,-855.25 1898,-810 1898,-810 1898,-810 1898,-666 1898,-611.3419 1847.101,-564.9358 1813.9284,-540.4956"></path>
<polygon fill="#000000" stroke="#000000" points="1815.6801,-537.4456 1805.5089,-534.4795 1811.6104,-543.1411 1815.6801,-537.4456"></polygon>
</g>
<!-- NC -->
<g id="node48" class="node">
<title>NC</title>
<ellipse fill="none" stroke="#000000" cx="2021" cy="-522" rx="27" ry="18"></ellipse>
<text text-anchor="middle" x="2021" y="-517.8" font-family="Times,serif" font-size="14.00" fill="#000000">NC</text>
</g>
<!-- TN&#45;&gt;NC -->
<g id="edge142" class="edge">
<title>TN-&gt;NC</title>
<path fill="none" stroke="#000000" d="M1924.8958,-951.2907C1983.1571,-943.8058 2120.4019,-917.0803 2178,-828 2221.4377,-760.8199 2209.6104,-721.49 2178,-648 2154.321,-592.9494 2091.9272,-555.1169 2053.3041,-536.1347"></path>
<polygon fill="#000000" stroke="#000000" points="2054.5677,-532.8598 2044.0348,-531.7158 2051.5554,-539.1785 2054.5677,-532.8598"></polygon>
</g>
<!-- ND -->
<g id="node49" class="node">
<title>ND</title>
<ellipse fill="none" stroke="#000000" cx="473" cy="-522" rx="27" ry="18"></ellipse>
<text text-anchor="middle" x="473" y="-517.8" font-family="Times,serif" font-size="14.00" fill="#000000">ND</text>
</g>
<!-- TN&#45;&gt;ND -->
<g id="edge143" class="edge">
<title>TN-&gt;ND</title>
<path fill="none" stroke="#000000" d="M1870.6719,-953.6295C1737.0717,-951.6315 1151.9715,-940.6717 975,-900 812.2677,-862.6008 756.8254,-862.2286 628,-756 556.5731,-697.1018 505.7946,-596.7458 484.356,-548.9054"></path>
<polygon fill="#000000" stroke="#000000" points="487.4609,-547.2712 480.2297,-539.5277 481.0537,-550.0905 487.4609,-547.2712"></polygon>
</g>
<!-- DC&#45;&gt;CA -->
<g id="edge17" class="edge">
<title>DC-&gt;CA</title>
<path fill="none" stroke="#000000" d="M601.1594,-1116.3136C602.1284,-1135.5669 606.0043,-1166.0526 620,-1188 648.6759,-1232.9682 667.3524,-1238.1401 716,-1260 922.2261,-1352.6679 1197.8115,-1377.8191 1296.7183,-1384.0822"></path>
<polygon fill="#000000" stroke="#000000" points="1296.621,-1387.5826 1306.8144,-1384.6939 1297.0444,-1380.5954 1296.621,-1387.5826"></polygon>
</g>
<!-- DC&#45;&gt;CO -->
<g id="edge18" class="edge">
<title>DC-&gt;CO</title>
<path fill="none" stroke="#000000" d="M622.7001,-1086.9579C677.0208,-1059.5313 823.5734,-986.8547 950,-936 1224.6158,-825.5367 1298.2934,-810.8702 1580,-720 1632.5878,-703.0367 1649.183,-707.9061 1699,-684 1796.7772,-637.0789 1816.4959,-613.7636 1896,-540 1918.6769,-518.9605 1942.2238,-492.5646 1958.2355,-473.8118"></path>
<polygon fill="#000000" stroke="#000000" points="1961.0323,-475.9249 1964.8215,-466.0308 1955.6893,-471.4025 1961.0323,-475.9249"></polygon>
</g>
<!-- DC&#45;&gt;CT -->
<g id="edge19" class="edge">
<title>DC-&gt;CT</title>
<path fill="none" stroke="#000000" d="M628.0897,-1096.4962C793.75,-1087.2999 1669.341,-1038.6935 1860.9356,-1028.0575"></path>
<polygon fill="#000000" stroke="#000000" points="1861.2688,-1031.5445 1871.0594,-1027.4955 1860.8807,-1024.5553 1861.2688,-1031.5445"></polygon>
</g>
<!-- FM -->
<g id="node21" class="node">
<title>FM</title>
<ellipse fill="none" stroke="#000000" cx="1401" cy="-666" rx="27" ry="18"></ellipse>
<text text-anchor="middle" x="1401" y="-661.8" font-family="Times,serif" font-size="14.00" fill="#000000">FM</text>
</g>
<!-- ME -->
<g id="node22" class="node">
<title>ME</title>
<ellipse fill="none" stroke="#000000" cx="1437" cy="-594" rx="27" ry="18"></ellipse>
<text text-anchor="middle" x="1437" y="-589.8" font-family="Times,serif" font-size="14.00" fill="#000000">ME</text>
</g>
<!-- FM&#45;&gt;ME -->
<g id="edge20" class="edge">
<title>FM-&gt;ME</title>
<path fill="none" stroke="#000000" d="M1409.7146,-648.5708C1413.9597,-640.0807 1419.1536,-629.6929 1423.8663,-620.2674"></path>
<polygon fill="#000000" stroke="#000000" points="1427.024,-621.7782 1428.3657,-611.2687 1420.763,-618.6477 1427.024,-621.7782"></polygon>
</g>
<!-- MH -->
<g id="node23" class="node">
<title>MH</title>
<ellipse fill="none" stroke="#000000" cx="1255" cy="-594" rx="27" ry="18"></ellipse>
<text text-anchor="middle" x="1255" y="-589.8" font-family="Times,serif" font-size="14.00" fill="#000000">MH</text>
</g>
<!-- FM&#45;&gt;MH -->
<g id="edge21" class="edge">
<title>FM-&gt;MH</title>
<path fill="none" stroke="#000000" d="M1379.0628,-655.2892C1356.8442,-644.4273 1321.5006,-627.1114 1291,-612 1289.2625,-611.1391 1287.4786,-610.2534 1285.6789,-609.3583"></path>
<polygon fill="#000000" stroke="#000000" points="1287.2004,-606.206 1276.6892,-604.8766 1284.0771,-612.4707 1287.2004,-606.206"></polygon>
</g>
<!-- MD -->
<g id="node24" class="node">
<title>MD</title>
<ellipse fill="none" stroke="#000000" cx="849" cy="-594" rx="27" ry="18"></ellipse>
<text text-anchor="middle" x="849" y="-589.8" font-family="Times,serif" font-size="14.00" fill="#000000">MD</text>
</g>
<!-- FM&#45;&gt;MD -->
<g id="edge22" class="edge">
<title>FM-&gt;MD</title>
<path fill="none" stroke="#000000" d="M1374.3759,-662.5273C1284.1173,-650.7544 989.5948,-612.3385 885.6939,-598.7862"></path>
<polygon fill="#000000" stroke="#000000" points="886.0482,-595.3028 875.6794,-597.4799 885.1427,-602.244 886.0482,-595.3028"></polygon>
</g>
<!-- MA -->
<g id="node25" class="node">
<title>MA</title>
<ellipse fill="none" stroke="#000000" cx="1183" cy="-594" rx="27" ry="18"></ellipse>
<text text-anchor="middle" x="1183" y="-589.8" font-family="Times,serif" font-size="14.00" fill="#000000">MA</text>
</g>
<!-- FM&#45;&gt;MA -->
<g id="edge23" class="edge">
<title>FM-&gt;MA</title>
<path fill="none" stroke="#000000" d="M1378.7069,-655.4231C1372.7103,-652.7966 1366.1738,-650.1273 1360,-648 1298.8514,-626.9297 1279.6033,-634.591 1219,-612 1217.1339,-611.3044 1215.2372,-610.5406 1213.3397,-609.7324"></path>
<polygon fill="#000000" stroke="#000000" points="1214.5327,-606.4287 1203.9849,-605.4315 1211.6086,-612.7887 1214.5327,-606.4287"></polygon>
</g>
<!-- MI -->
<g id="node26" class="node">
<title>MI</title>
<ellipse fill="none" stroke="#000000" cx="1035" cy="-594" rx="27" ry="18"></ellipse>
<text text-anchor="middle" x="1035" y="-589.8" font-family="Times,serif" font-size="14.00" fill="#000000">MI</text>
</g>
<!-- FM&#45;&gt;MI -->
<g id="edge24" class="edge">
<title>FM-&gt;MI</title>
<path fill="none" stroke="#000000" d="M1374.9716,-660.8797C1310.8408,-648.2638 1145.0978,-615.6586 1071.3334,-601.1476"></path>
<polygon fill="#000000" stroke="#000000" points="1071.6281,-597.6385 1061.1406,-599.1424 1070.2769,-604.5069 1071.6281,-597.6385"></polygon>
</g>
<!-- MN -->
<g id="node27" class="node">
<title>MN</title>
<ellipse fill="none" stroke="#000000" cx="1691" cy="-594" rx="27" ry="18"></ellipse>
<text text-anchor="middle" x="1691" y="-589.8" font-family="Times,serif" font-size="14.00" fill="#000000">MN</text>
</g>
<!-- FM&#45;&gt;MN -->
<g id="edge25" class="edge">
<title>FM-&gt;MN</title>
<path fill="none" stroke="#000000" d="M1421.8731,-654.2475C1426.7234,-651.8906 1431.9484,-649.6385 1437,-648 1530.4101,-617.7014 1561.5899,-642.2986 1655,-612 1656.8943,-611.3856 1658.8131,-610.6848 1660.7273,-609.9246"></path>
<polygon fill="#000000" stroke="#000000" points="1662.4068,-613.0085 1670.1269,-605.7525 1659.5669,-606.6105 1662.4068,-613.0085"></polygon>
</g>
<!-- MS -->
<g id="node28" class="node">
<title>MS</title>
<ellipse fill="none" stroke="#000000" cx="1619" cy="-594" rx="27" ry="18"></ellipse>
<text text-anchor="middle" x="1619" y="-589.8" font-family="Times,serif" font-size="14.00" fill="#000000">MS</text>
</g>
<!-- FM&#45;&gt;MS -->
<g id="edge26" class="edge">
<title>FM-&gt;MS</title>
<path fill="none" stroke="#000000" d="M1421.9736,-654.5382C1426.8187,-652.1662 1432.0162,-649.8345 1437,-648 1499.7184,-624.9139 1520.2816,-635.0861 1583,-612 1584.8689,-611.3121 1586.7679,-610.5542 1588.667,-609.7505"></path>
<polygon fill="#000000" stroke="#000000" points="1590.3934,-612.8095 1598.0264,-605.4618 1587.4773,-606.4458 1590.3934,-612.8095"></polygon>
</g>
<!-- MO -->
<g id="node29" class="node">
<title>MO</title>
<ellipse fill="none" stroke="#000000" cx="1492" cy="-450" rx="27" ry="18"></ellipse>
<text text-anchor="middle" x="1492" y="-445.8" font-family="Times,serif" font-size="14.00" fill="#000000">MO</text>
</g>
<!-- FM&#45;&gt;MO -->
<g id="edge27" class="edge">
<title>FM-&gt;MO</title>
<path fill="none" stroke="#000000" d="M1397.8024,-647.9055C1395.2556,-629.3621 1393.2602,-599.936 1401,-576 1414.3513,-534.7099 1446.8402,-495.5723 1469.1531,-472.1776"></path>
<polygon fill="#000000" stroke="#000000" points="1471.8082,-474.4682 1476.2876,-464.8668 1466.7984,-469.5791 1471.8082,-474.4682"></polygon>
</g>
<!-- MT -->
<g id="node30" class="node">
<title>MT</title>
<ellipse fill="none" stroke="#000000" cx="1547" cy="-594" rx="27" ry="18"></ellipse>
<text text-anchor="middle" x="1547" y="-589.8" font-family="Times,serif" font-size="14.00" fill="#000000">MT</text>
</g>
<!-- FM&#45;&gt;MT -->
<g id="edge28" class="edge">
<title>FM-&gt;MT</title>
<path fill="none" stroke="#000000" d="M1422.6892,-655.1234C1427.4038,-652.7681 1432.3666,-650.2956 1437,-648 1463.5689,-634.8365 1493.8127,-620.0003 1515.8546,-609.2145"></path>
<polygon fill="#000000" stroke="#000000" points="1517.6174,-612.2486 1525.0628,-604.7108 1514.5419,-605.9604 1517.6174,-612.2486"></polygon>
</g>
<!-- MP -->
<g id="node31" class="node">
<title>MP</title>
<ellipse fill="none" stroke="#000000" cx="1327" cy="-594" rx="27" ry="18"></ellipse>
<text text-anchor="middle" x="1327" y="-589.8" font-family="Times,serif" font-size="14.00" fill="#000000">MP</text>
</g>
<!-- FM&#45;&gt;MP -->
<g id="edge29" class="edge">
<title>FM-&gt;MP</title>
<path fill="none" stroke="#000000" d="M1385.6672,-651.0816C1375.249,-640.945 1361.2922,-627.3654 1349.6053,-615.9944"></path>
<polygon fill="#000000" stroke="#000000" points="1351.9212,-613.3644 1342.3132,-608.8993 1347.0397,-618.3815 1351.9212,-613.3644"></polygon>
</g>
<!-- MH&#45;&gt;HI -->
<g id="edge64" class="edge">
<title>MH-&gt;HI</title>
<path fill="none" stroke="#000000" d="M1238.4369,-579.718C1183.9053,-532.6968 1009.7915,-382.5627 945.3163,-326.9673"></path>
<polygon fill="#000000" stroke="#000000" points="947.522,-324.2478 937.6631,-320.3682 942.9508,-329.5492 947.522,-324.2478"></polygon>
</g>
<!-- MD&#45;&gt;DC -->
<g id="edge66" class="edge">
<title>MD-&gt;DC</title>
<path fill="none" stroke="#000000" d="M839.3041,-610.9495C825.6498,-634.9852 800.17,-680.453 780,-720 713.7483,-849.8984 641.2885,-1008.6074 613.1297,-1070.9904"></path>
<polygon fill="#000000" stroke="#000000" points="609.7656,-1069.9368 608.8475,-1080.4918 616.1474,-1072.8131 609.7656,-1069.9368"></polygon>
</g>
<!-- MD&#45;&gt;DE -->
<g id="edge65" class="edge">
<title>MD-&gt;DE</title>
<path fill="none" stroke="#000000" d="M823.8811,-586.9948C794.9826,-578.3397 746.674,-562.0162 709,-540 443.2599,-384.7051 175.1487,-119.675 97.9918,-40.7932"></path>
<polygon fill="#000000" stroke="#000000" points="100.2115,-38.056 90.7258,-33.3366 95.1981,-42.9413 100.2115,-38.056"></polygon>
</g>
<!-- MA&#45;&gt;AL -->
<g id="edge67" class="edge">
<title>MA-&gt;AL</title>
<path fill="none" stroke="#000000" d="M1195.0516,-610.3294C1212.8289,-636.0795 1244,-688.3144 1244,-738 1244,-1602 1244,-1602 1244,-1602 1244,-1643.0556 1255.1026,-1689.5049 1263.3252,-1718.2757"></path>
<polygon fill="#000000" stroke="#000000" points="1260.0161,-1719.4288 1266.1984,-1728.0328 1266.731,-1717.4514 1260.0161,-1719.4288"></polygon>
</g>
<!-- MA&#45;&gt;AK -->
<g id="edge68" class="edge">
<title>MA-&gt;AK</title>
<path fill="none" stroke="#000000" d="M1201.6893,-607.0498C1216.9832,-617.8255 1239.0967,-633.6283 1258,-648 1310.1606,-687.6563 2178,-1320.4764 2178,-1386 2178,-1458 2178,-1458 2178,-1458 2178,-1501.4626 2199.2149,-1548.1523 2214.5435,-1576.2147"></path>
<polygon fill="#000000" stroke="#000000" points="2211.524,-1577.9859 2219.477,-1584.9859 2217.6251,-1574.5541 2211.524,-1577.9859"></polygon>
</g>
<!-- MA&#45;&gt;AS -->
<g id="edge69" class="edge">
<title>MA-&gt;AS</title>
<path fill="none" stroke="#000000" d="M1204.5445,-582.8145C1209.2681,-580.4785 1214.2711,-578.0919 1219,-576 1259.5332,-558.0694 1277.3738,-567.6672 1312,-540 1387.3079,-479.8272 1352.6525,-413.2572 1433,-360 1517.6828,-303.8693 2243.2322,-193.1945 2416.1267,-167.4434"></path>
<polygon fill="#000000" stroke="#000000" points="2416.872,-170.8712 2426.2488,-165.9389 2415.8428,-163.9472 2416.872,-170.8712"></polygon>
</g>
<!-- MA&#45;&gt;AR -->
<g id="edge71" class="edge">
<title>MA-&gt;AR</title>
<path fill="none" stroke="#000000" d="M1179.4776,-612.1045C1174.4982,-639.3176 1166,-692.4358 1166,-738 1166,-1170 1166,-1170 1166,-1170 1166,-1210.4027 1159.3181,-1256.7448 1154.3326,-1285.6987"></path>
<polygon fill="#000000" stroke="#000000" points="1150.8243,-1285.4377 1152.5224,-1295.8955 1157.7165,-1286.6613 1150.8243,-1285.4377"></polygon>
</g>
<!-- MA&#45;&gt;AZ -->
<g id="edge70" class="edge">
<title>MA-&gt;AZ</title>
<path fill="none" stroke="#000000" d="M1175.9087,-576.4116C1161.8953,-540.0157 1132,-453.521 1132,-378 1132,-378 1132,-378 1132,-306 1132,-246.1917 939.4086,-191.0666 858.3186,-170.507"></path>
<polygon fill="#000000" stroke="#000000" points="859.1003,-167.0948 848.5497,-168.061 857.4001,-173.8852 859.1003,-167.0948"></polygon>
</g>
<!-- MI&#45;&gt;ID -->
<g id="edge72" class="edge">
<title>MI-&gt;ID</title>
<path fill="none" stroke="#000000" d="M1022.4189,-610.098C996.5403,-643.4153 935.8433,-722.6224 889,-792 801.6015,-921.4423 706.6053,-1082.7516 670.7766,-1144.416"></path>
<polygon fill="#000000" stroke="#000000" points="667.7254,-1142.7007 665.7357,-1153.1071 673.7806,-1146.2129 667.7254,-1142.7007"></polygon>
</g>
<!-- MI&#45;&gt;IL -->
<g id="edge73" class="edge">
<title>MI-&gt;IL</title>
<path fill="none" stroke="#000000" d="M1007.9296,-592.3927C959.2393,-588.6474 854.5544,-576.6582 775,-540 727.525,-518.1238 710.9735,-511.5084 682,-468 638.607,-402.8386 625.0107,-308.7706 620.8207,-262.2481"></path>
<polygon fill="#000000" stroke="#000000" points="624.2874,-261.6967 619.9838,-252.0153 617.3107,-262.2673 624.2874,-261.6967"></polygon>
</g>
<!-- MI&#45;&gt;IN -->
<g id="edge74" class="edge">
<title>MI-&gt;IN</title>
<path fill="none" stroke="#000000" d="M1030.2044,-612.1727C1023.6872,-636.8697 1011.9732,-681.2595 1004.3445,-710.1684"></path>
<polygon fill="#000000" stroke="#000000" points="1000.9034,-709.4914 1001.7359,-720.0535 1007.6717,-711.2775 1000.9034,-709.4914"></polygon>
</g>
<!-- MI&#45;&gt;IA -->
<g id="edge75" class="edge">
<title>MI-&gt;IA</title>
<path fill="none" stroke="#000000" d="M1034.1483,-575.9769C1031.0575,-526.3319 1017.1742,-384.8642 957,-288 948.2296,-273.882 934.5683,-261.5213 922.2059,-252.2014"></path>
<polygon fill="#000000" stroke="#000000" points="924.0932,-249.2476 913.931,-246.2508 920.0063,-254.9307 924.0932,-249.2476"></polygon>
</g>
<!-- MN&#45;&gt;NE -->
<g id="edge76" class="edge">
<title>MN-&gt;NE</title>
<path fill="none" stroke="#000000" d="M1714.3432,-584.7983C1740.6627,-574.3261 1784.6588,-556.5272 1822,-540 1824.1966,-539.0278 1826.4564,-538.0081 1828.7267,-536.9692"></path>
<polygon fill="#000000" stroke="#000000" points="1830.3941,-540.0538 1837.9852,-532.6628 1827.4419,-533.7068 1830.3941,-540.0538"></polygon>
</g>
<!-- MN&#45;&gt;NV -->
<g id="edge77" class="edge">
<title>MN-&gt;NV</title>
<path fill="none" stroke="#000000" d="M1691.5002,-612.0089C1692.8525,-660.6912 1696.5886,-795.1886 1698.2204,-853.9345"></path>
<polygon fill="#000000" stroke="#000000" points="1694.7231,-854.0854 1698.4996,-863.9843 1701.7204,-853.8909 1694.7231,-854.0854"></polygon>
</g>
<!-- MN&#45;&gt;NH -->
<g id="edge78" class="edge">
<title>MN-&gt;NH</title>
<path fill="none" stroke="#000000" d="M1670.6072,-582.1074C1665.6458,-579.6966 1660.2522,-577.4566 1655,-576 1623.0229,-567.1315 1136.2139,-533.9051 996.3273,-524.4967"></path>
<polygon fill="#000000" stroke="#000000" points="996.327,-520.9889 986.1149,-523.8108 995.8578,-527.9732 996.327,-520.9889"></polygon>
</g>
<!-- MN&#45;&gt;NJ -->
<g id="edge79" class="edge">
<title>MN-&gt;NJ</title>
<path fill="none" stroke="#000000" d="M1696.6854,-576.2022C1699.2563,-568.1541 1702.3534,-558.4588 1705.2132,-549.5067"></path>
<polygon fill="#000000" stroke="#000000" points="1708.5913,-550.4334 1708.3003,-539.8425 1701.9232,-548.3033 1708.5913,-550.4334"></polygon>
</g>
<!-- MN&#45;&gt;NM -->
<g id="edge80" class="edge">
<title>MN-&gt;NM</title>
<path fill="none" stroke="#000000" d="M1673.4415,-607.8994C1670.3352,-609.3656 1667.1197,-610.7682 1664,-612 1611.6577,-632.6661 1548.1755,-649.7865 1509.0268,-658.8978"></path>
<polygon fill="#000000" stroke="#000000" points="1508.1153,-655.5156 1499.1399,-661.1453 1509.667,-662.3415 1508.1153,-655.5156"></polygon>
</g>
<!-- MN&#45;&gt;NY -->
<g id="edge81" class="edge">
<title>MN-&gt;NY</title>
<path fill="none" stroke="#000000" d="M1708.8688,-580.4574C1723.2406,-569.565 1743.6381,-554.1059 1759.8476,-541.8207"></path>
<polygon fill="#000000" stroke="#000000" points="1762.0327,-544.5564 1767.8884,-535.7267 1757.8046,-538.9776 1762.0327,-544.5564"></polygon>
</g>
<!-- MN&#45;&gt;NC -->
<g id="edge82" class="edge">
<title>MN-&gt;NC</title>
<path fill="none" stroke="#000000" d="M1716.8945,-588.3503C1775.4505,-575.5744 1918.1497,-544.4401 1985.1475,-529.8224"></path>
<polygon fill="#000000" stroke="#000000" points="1986.2017,-533.1748 1995.2257,-527.6235 1984.7095,-526.3357 1986.2017,-533.1748"></polygon>
</g>
<!-- MN&#45;&gt;ND -->
<g id="edge83" class="edge">
<title>MN-&gt;ND</title>
<path fill="none" stroke="#000000" d="M1670.6445,-581.9679C1665.6816,-579.5629 1660.2779,-577.3604 1655,-576 1465.4756,-527.1485 970.4725,-549.8228 775,-540 679.6407,-535.2081 567.4309,-528.1454 510.3849,-524.4531"></path>
<polygon fill="#000000" stroke="#000000" points="510.2678,-520.9382 500.0619,-523.7827 509.8141,-527.9235 510.2678,-520.9382"></polygon>
</g>
<!-- MS&#45;&gt;SC -->
<g id="edge84" class="edge">
<title>MS-&gt;SC</title>
<path fill="none" stroke="#000000" d="M1640.6126,-605.0359C1645.3319,-607.3813 1650.316,-609.8094 1655,-612 1754.7018,-658.6275 2502.7022,-915.9199 2563,-1008 2609.1254,-1078.4375 2533.2403,-1343.9668 2506.6606,-1430.5303"></path>
<polygon fill="#000000" stroke="#000000" points="2503.2889,-1429.5867 2503.6751,-1440.1745 2509.9759,-1431.6567 2503.2889,-1429.5867"></polygon>
</g>
<!-- MS&#45;&gt;SD -->
<g id="edge85" class="edge">
<title>MS-&gt;SD</title>
<path fill="none" stroke="#000000" d="M1619,-575.8146C1619,-548.4983 1619,-495.25 1619,-450 1619,-450 1619,-450 1619,-234 1619,-193.876 1619,-147.4631 1619,-118.4177"></path>
<polygon fill="#000000" stroke="#000000" points="1622.5001,-118.1853 1619,-108.1854 1615.5001,-118.1854 1622.5001,-118.1853"></polygon>
</g>
<!-- MO&#45;&gt;OH -->
<g id="edge86" class="edge">
<title>MO-&gt;OH</title>
<path fill="none" stroke="#000000" d="M1503.3647,-433.3008C1509.4873,-424.3043 1517.1637,-413.0247 1523.9841,-403.0029"></path>
<polygon fill="#000000" stroke="#000000" points="1526.9641,-404.845 1529.6969,-394.6087 1521.1771,-400.9066 1526.9641,-404.845"></polygon>
</g>
<!-- MO&#45;&gt;OK -->
<g id="edge87" class="edge">
<title>MO-&gt;OK</title>
<path fill="none" stroke="#000000" d="M1518.6904,-446.86C1616.3091,-435.3754 1954.1196,-395.633 2066.9663,-382.3569"></path>
<polygon fill="#000000" stroke="#000000" points="2067.6466,-385.8011 2077.1691,-381.1566 2066.8286,-378.849 2067.6466,-385.8011"></polygon>
</g>
<!-- MO&#45;&gt;OR -->
<g id="edge88" class="edge">
<title>MO-&gt;OR</title>
<path fill="none" stroke="#000000" d="M1486.3146,-432.2022C1483.7437,-424.1541 1480.6466,-414.4588 1477.7868,-405.5067"></path>
<polygon fill="#000000" stroke="#000000" points="1481.0768,-404.3033 1474.6997,-395.8425 1474.4087,-406.4334 1481.0768,-404.3033"></polygon>
</g>
<!-- MT&#45;&gt;TN -->
<g id="edge89" class="edge">
<title>MT-&gt;TN</title>
<path fill="none" stroke="#000000" d="M1568.4537,-605.3248C1627.1117,-637.43 1791.2875,-735.1258 1874,-864 1885.957,-882.6303 1891.989,-907.0713 1895.0135,-925.7812"></path>
<polygon fill="#000000" stroke="#000000" points="1891.5623,-926.3724 1896.436,-935.7797 1898.4925,-925.3864 1891.5623,-926.3724"></polygon>
</g>
<!-- MT&#45;&gt;TX -->
<g id="edge90" class="edge">
<title>MT-&gt;TX</title>
<path fill="none" stroke="#000000" d="M1564.3356,-579.994C1588.6092,-560.8855 1634.6304,-526.4594 1678,-504 1842.0757,-419.0318 1887.8515,-401.0726 2068,-360 2119.7101,-348.2105 2481.909,-318.4496 2599.9235,-308.9576"></path>
<polygon fill="#000000" stroke="#000000" points="2600.2386,-312.4436 2609.9264,-308.1546 2599.6784,-305.4661 2600.2386,-312.4436"></polygon>
</g>
<!-- PW -->
<g id="node53" class="node">
<title>PW</title>
<ellipse fill="none" stroke="#000000" cx="1276" cy="-522" rx="27" ry="18"></ellipse>
<text text-anchor="middle" x="1276" y="-517.8" font-family="Times,serif" font-size="14.00" fill="#000000">PW</text>
</g>
<!-- MP&#45;&gt;PW -->
<g id="edge110" class="edge">
<title>MP-&gt;PW</title>
<path fill="none" stroke="#000000" d="M1315.4273,-577.6621C1309.0628,-568.6768 1301.0285,-557.3343 1293.8756,-547.2362"></path>
<polygon fill="#000000" stroke="#000000" points="1296.5171,-544.9101 1287.8808,-538.7729 1290.8049,-548.9562 1296.5171,-544.9101"></polygon>
</g>
<!-- PA -->
<g id="node54" class="node">
<title>PA</title>
<ellipse fill="none" stroke="#000000" cx="2413" cy="-522" rx="27" ry="18"></ellipse>
<text text-anchor="middle" x="2413" y="-517.8" font-family="Times,serif" font-size="14.00" fill="#000000">PA</text>
</g>
<!-- MP&#45;&gt;PA -->
<g id="edge111" class="edge">
<title>MP-&gt;PA</title>
<path fill="none" stroke="#000000" d="M1351.7783,-586.7549C1366.045,-582.8913 1384.3868,-578.4422 1401,-576 1425.601,-572.3835 2196.2949,-533.0255 2375.865,-523.8874"></path>
<polygon fill="#000000" stroke="#000000" points="2376.0728,-527.3814 2385.882,-523.3778 2375.717,-520.3905 2376.0728,-527.3814"></polygon>
</g>
<!-- PR -->
<g id="node55" class="node">
<title>PR</title>
<ellipse fill="none" stroke="#000000" cx="811" cy="-522" rx="27" ry="18"></ellipse>
<text text-anchor="middle" x="811" y="-517.8" font-family="Times,serif" font-size="14.00" fill="#000000">PR</text>
</g>
<!-- MP&#45;&gt;PR -->
<g id="edge112" class="edge">
<title>MP-&gt;PR</title>
<path fill="none" stroke="#000000" d="M1306.5856,-582.1838C1301.6251,-579.7699 1296.2373,-577.5093 1291,-576 1133.0901,-530.4929 1085.9828,-561.0483 923,-540 897.5393,-536.7119 868.9678,-532.1053 847.0552,-528.3754"></path>
<polygon fill="#000000" stroke="#000000" points="847.6326,-524.9234 837.1841,-526.6781 846.4463,-531.8222 847.6326,-524.9234"></polygon>
</g>
<!-- FL -->
<g id="node32" class="node">
<title>FL</title>
<ellipse fill="none" stroke="#000000" cx="1149" cy="-1746" rx="27" ry="18"></ellipse>
<text text-anchor="middle" x="1149" y="-1741.8" font-family="Times,serif" font-size="14.00" fill="#000000">FL</text>
</g>
<!-- FL&#45;&gt;LA -->
<g id="edge30" class="edge">
<title>FL-&gt;LA</title>
<path fill="none" stroke="#000000" d="M1149,-1727.8314C1149,-1720.131 1149,-1710.9743 1149,-1702.4166"></path>
<polygon fill="#000000" stroke="#000000" points="1152.5001,-1702.4132 1149,-1692.4133 1145.5001,-1702.4133 1152.5001,-1702.4132"></polygon>
</g>
<!-- GA -->
<g id="node33" class="node">
<title>GA</title>
<ellipse fill="none" stroke="#000000" cx="1272" cy="-1818" rx="27" ry="18"></ellipse>
<text text-anchor="middle" x="1272" y="-1813.8" font-family="Times,serif" font-size="14.00" fill="#000000">GA</text>
</g>
<!-- GA&#45;&gt;AL -->
<g id="edge31" class="edge">
<title>GA-&gt;AL</title>
<path fill="none" stroke="#000000" d="M1272,-1799.8314C1272,-1792.131 1272,-1782.9743 1272,-1774.4166"></path>
<polygon fill="#000000" stroke="#000000" points="1275.5001,-1774.4132 1272,-1764.4133 1268.5001,-1774.4133 1275.5001,-1774.4132"></polygon>
</g>
<!-- GA&#45;&gt;AK -->
<g id="edge32" class="edge">
<title>GA-&gt;AK</title>
<path fill="none" stroke="#000000" d="M1297.6242,-1812.2225C1430.4078,-1782.2838 2040.0029,-1644.8386 2194.387,-1610.0297"></path>
<polygon fill="#000000" stroke="#000000" points="2195.3113,-1613.4092 2204.2965,-1607.7954 2193.7716,-1606.5806 2195.3113,-1613.4092"></polygon>
</g>
<!-- GA&#45;&gt;AS -->
<g id="edge33" class="edge">
<title>GA-&gt;AS</title>
<path fill="none" stroke="#000000" d="M1299.2952,-1817.1022C1514.0867,-1809.8637 2924,-1759.1084 2924,-1674 2924,-1674 2924,-1674 2924,-882 2924,-784.5257 2886,-763.4743 2886,-666 2886,-666 2886,-666 2886,-306 2886,-251.5869 2851.5307,-240.6082 2803,-216 2676.1406,-151.6741 2620.3448,-223.7368 2485,-180 2483.9386,-179.657 2482.8727,-179.2768 2481.808,-178.866"></path>
<polygon fill="#000000" stroke="#000000" points="2482.953,-175.5397 2472.4068,-174.5257 2480.0189,-181.8951 2482.953,-175.5397"></polygon>
</g>
<!-- GA&#45;&gt;AR -->
<g id="edge35" class="edge">
<title>GA-&gt;AR</title>
<path fill="none" stroke="#000000" d="M1244.9873,-1817.5794C1070.5182,-1814.5165 110,-1792.2831 110,-1674 110,-1674 110,-1674 110,-1458 110,-1354.6689 926.7111,-1321.3721 1111.9454,-1315.149"></path>
<polygon fill="#000000" stroke="#000000" points="1112.1295,-1318.6449 1122.0086,-1314.8169 1111.8985,-1311.6487 1112.1295,-1318.6449"></polygon>
</g>
<!-- GA&#45;&gt;AZ -->
<g id="edge34" class="edge">
<title>GA-&gt;AZ</title>
<path fill="none" stroke="#000000" d="M1244.9373,-1817.323C1089.0379,-1813.3311 308.906,-1792.0757 206,-1764 122.765,-1741.2911 34,-1760.2772 34,-1674 34,-1674 34,-1674 34,-450 34,-315.7535 104.2357,-274.6354 225,-216 275.3993,-191.5294 662.8793,-170.0761 785.7483,-163.8299"></path>
<polygon fill="#000000" stroke="#000000" points="785.9915,-167.3221 795.8024,-163.3228 785.6388,-160.331 785.9915,-167.3221"></polygon>
</g>
<!-- GU -->
<g id="node34" class="node">
<title>GU</title>
<ellipse fill="none" stroke="#000000" cx="2527" cy="-1098" rx="27" ry="18"></ellipse>
<text text-anchor="middle" x="2527" y="-1093.8" font-family="Times,serif" font-size="14.00" fill="#000000">GU</text>
</g>
<!-- UT -->
<g id="node35" class="node">
<title>UT</title>
<ellipse fill="none" stroke="#000000" cx="2527" cy="-1026" rx="27" ry="18"></ellipse>
<text text-anchor="middle" x="2527" y="-1021.8" font-family="Times,serif" font-size="14.00" fill="#000000">UT</text>
</g>
<!-- GU&#45;&gt;UT -->
<g id="edge36" class="edge">
<title>GU-&gt;UT</title>
<path fill="none" stroke="#000000" d="M2527,-1079.8314C2527,-1072.131 2527,-1062.9743 2527,-1054.4166"></path>
<polygon fill="#000000" stroke="#000000" points="2530.5001,-1054.4132 2527,-1044.4133 2523.5001,-1054.4133 2530.5001,-1054.4132"></polygon>
</g>
<!-- UT&#45;&gt;TN -->
<g id="edge144" class="edge">
<title>UT-&gt;TN</title>
<path fill="none" stroke="#000000" d="M2500.3744,-1022.9522C2400.7175,-1011.5448 2049.5809,-971.3511 1934.6871,-958.1995"></path>
<polygon fill="#000000" stroke="#000000" points="1934.9654,-954.7086 1924.6322,-957.0485 1934.1693,-961.6632 1934.9654,-954.7086"></polygon>
</g>
<!-- UT&#45;&gt;TX -->
<g id="edge145" class="edge">
<title>UT-&gt;TX</title>
<path fill="none" stroke="#000000" d="M2533.2893,-1008.1511C2552.9686,-951.2645 2613.2882,-768.762 2634,-612 2647.4113,-510.4933 2642.3302,-388.3966 2638.9989,-334.2393"></path>
<polygon fill="#000000" stroke="#000000" points="2642.4777,-333.7966 2638.3419,-324.0423 2635.4922,-334.2467 2642.4777,-333.7966"></polygon>
</g>
<!-- HI&#45;&gt;ID -->
<g id="edge37" class="edge">
<title>HI-&gt;ID</title>
<path fill="none" stroke="#000000" d="M893.9171,-308.4249C774.3924,-320.7368 300,-387.166 300,-666 300,-738 300,-738 300,-738 300,-911.6663 249.8231,-1027.083 399,-1116 435.8363,-1137.9563 557.3102,-1156.8031 619.1419,-1165.2543"></path>
<polygon fill="#000000" stroke="#000000" points="618.8686,-1168.749 629.2463,-1166.6153 619.803,-1161.8117 618.8686,-1168.749"></polygon>
</g>
<!-- HI&#45;&gt;IL -->
<g id="edge38" class="edge">
<title>HI-&gt;IL</title>
<path fill="none" stroke="#000000" d="M895.5119,-299.9234C841.7412,-287.1039 716.5775,-257.2635 654.7995,-242.535"></path>
<polygon fill="#000000" stroke="#000000" points="655.2793,-239.0513 644.7402,-240.1367 653.6559,-245.8605 655.2793,-239.0513"></polygon>
</g>
<!-- HI&#45;&gt;IN -->
<g id="edge39" class="edge">
<title>HI-&gt;IN</title>
<path fill="none" stroke="#000000" d="M917.4776,-324.1045C912.4982,-351.3176 904,-404.4358 904,-450 904,-522 904,-522 904,-522 904,-596.6509 951.441,-674.8522 978.5559,-713.4515"></path>
<polygon fill="#000000" stroke="#000000" points="975.9781,-715.8628 984.6503,-721.9491 981.6664,-711.7831 975.9781,-715.8628"></polygon>
</g>
<!-- HI&#45;&gt;IA -->
<g id="edge40" class="edge">
<title>HI-&gt;IA</title>
<path fill="none" stroke="#000000" d="M914.3258,-288.2022C911.2524,-280.0064 907.5384,-270.1024 904.1305,-261.0145"></path>
<polygon fill="#000000" stroke="#000000" points="907.3858,-259.7274 900.5974,-251.593 900.8315,-262.1853 907.3858,-259.7274"></polygon>
</g>
<!-- ID&#45;&gt;DC -->
<g id="edge42" class="edge">
<title>ID-&gt;DC</title>
<path fill="none" stroke="#000000" d="M643.5196,-1153.6621C636.4876,-1144.4564 627.5653,-1132.7764 619.7117,-1122.4953"></path>
<polygon fill="#000000" stroke="#000000" points="622.2828,-1120.0953 613.431,-1114.2733 616.72,-1124.3446 622.2828,-1120.0953"></polygon>
</g>
<!-- ID&#45;&gt;DE -->
<g id="edge41" class="edge">
<title>ID-&gt;DE</title>
<path fill="none" stroke="#000000" d="M628.8665,-1167.9566C562.7244,-1162.5508 395.2188,-1146.1791 349,-1116 152.3548,-987.5983 72,-900.8539 72,-666 72,-666 72,-666 72,-450 72,-348.8071 0,-335.1929 0,-234 0,-234 0,-234 0,-162 0,-114.8627 32.2452,-68.0366 54.7287,-41.1156"></path>
<polygon fill="#000000" stroke="#000000" points="57.479,-43.2854 61.3464,-33.4216 52.172,-38.7207 57.479,-43.2854"></polygon>
</g>
<!-- IL&#45;&gt;LA -->
<g id="edge43" class="edge">
<title>IL-&gt;LA</title>
<path fill="none" stroke="#000000" d="M592.2633,-237.7198C553.9794,-243.8733 482.1893,-258.5338 428,-288 385.3923,-311.1685 379.7052,-325.1265 346,-360 163.9075,-548.4043 72,-619.9812 72,-882 72,-1530 72,-1530 72,-1530 72,-1578.5727 91.6169,-1596.2727 134,-1620 177.453,-1644.3263 933.6548,-1667.7436 1111.6836,-1672.936"></path>
<polygon fill="#000000" stroke="#000000" points="1111.7619,-1676.4397 1121.8593,-1673.2313 1111.965,-1669.4426 1111.7619,-1676.4397"></polygon>
</g>
<!-- IN&#45;&gt;NE -->
<g id="edge44" class="edge">
<title>IN-&gt;NE</title>
<path fill="none" stroke="#000000" d="M1018.6291,-726.8C1024.7406,-724.1102 1031.5003,-721.5652 1038,-720 1302.0346,-656.4156 1388.3756,-763.702 1648,-684 1730.6822,-658.6174 1805.5325,-584.0806 1839.9902,-545.5958"></path>
<polygon fill="#000000" stroke="#000000" points="1842.7324,-547.7779 1846.7183,-537.9614 1837.4807,-543.1496 1842.7324,-547.7779"></polygon>
</g>
<!-- IN&#45;&gt;NV -->
<g id="edge45" class="edge">
<title>IN-&gt;NV</title>
<path fill="none" stroke="#000000" d="M1023.0518,-743.344C1130.4513,-765.3746 1539.0334,-849.1863 1663.0765,-874.6311"></path>
<polygon fill="#000000" stroke="#000000" points="1662.6835,-878.1233 1673.1829,-876.7042 1664.0902,-871.2661 1662.6835,-878.1233"></polygon>
</g>
<!-- IN&#45;&gt;NH -->
<g id="edge46" class="edge">
<title>IN-&gt;NH</title>
<path fill="none" stroke="#000000" d="M993.8255,-719.9555C987.2035,-682.3144 971.8754,-595.1867 963.9478,-550.1246"></path>
<polygon fill="#000000" stroke="#000000" points="967.372,-549.3874 962.1922,-540.1451 960.4779,-550.6003 967.372,-549.3874"></polygon>
</g>
<!-- IN&#45;&gt;NJ -->
<g id="edge47" class="edge">
<title>IN-&gt;NJ</title>
<path fill="none" stroke="#000000" d="M1018.6473,-726.8745C1024.7589,-724.185 1031.5141,-721.6215 1038,-720 1241.6751,-669.0794 1303.1431,-725.2238 1509,-684 1534.0125,-678.9911 1712.0561,-632.6735 1727,-612 1740.2312,-593.6959 1734.6143,-567.7429 1727.0833,-548.4063"></path>
<polygon fill="#000000" stroke="#000000" points="1730.2027,-546.7985 1723.0603,-538.9732 1723.7638,-549.5446 1730.2027,-546.7985"></polygon>
</g>
<!-- IN&#45;&gt;NM -->
<g id="edge48" class="edge">
<title>IN-&gt;NM</title>
<path fill="none" stroke="#000000" d="M1018.6622,-726.9332C1024.7739,-724.2439 1031.5254,-721.6659 1038,-720 1210.4373,-675.6322 1265.7247,-732.6608 1437,-684 1439.1299,-683.3949 1441.2842,-682.6638 1443.424,-681.8471"></path>
<polygon fill="#000000" stroke="#000000" points="1444.8289,-685.0529 1452.5938,-677.8448 1442.0286,-678.6374 1444.8289,-685.0529"></polygon>
</g>
<!-- IN&#45;&gt;NY -->
<g id="edge49" class="edge">
<title>IN-&gt;NY</title>
<path fill="none" stroke="#000000" d="M1018.6359,-726.8281C1024.7474,-724.1384 1031.5055,-721.5865 1038,-720 1275.5396,-661.9747 1349.941,-743.9584 1587,-684 1624.211,-674.5884 1716.7693,-639.0504 1744,-612 1761.2923,-594.8223 1772.2936,-569.1734 1778.679,-549.6462"></path>
<polygon fill="#000000" stroke="#000000" points="1782.03,-550.6565 1781.6063,-540.0701 1775.3358,-548.6101 1782.03,-550.6565"></polygon>
</g>
<!-- IN&#45;&gt;NC -->
<g id="edge50" class="edge">
<title>IN-&gt;NC</title>
<path fill="none" stroke="#000000" d="M1018.6244,-726.7805C1024.7359,-724.0906 1031.4968,-721.5505 1038,-720 1324.1915,-651.7666 1414.6957,-759.713 1699,-684 1815.9012,-652.8681 1939.8655,-576.3754 1993.564,-540.7822"></path>
<polygon fill="#000000" stroke="#000000" points="1995.7957,-543.5003 2002.1631,-535.0322 1991.9047,-537.6813 1995.7957,-543.5003"></polygon>
</g>
<!-- IN&#45;&gt;ND -->
<g id="edge51" class="edge">
<title>IN-&gt;ND</title>
<path fill="none" stroke="#000000" d="M970.094,-735.2829C922.6412,-729.846 821.5723,-715.3558 742,-684 646.2244,-646.2593 545.3829,-576.0541 499.0585,-541.8111"></path>
<polygon fill="#000000" stroke="#000000" points="500.9074,-538.8241 490.797,-535.6568 496.7255,-544.4377 500.9074,-538.8241"></polygon>
</g>
<!-- IA&#45;&gt;AL -->
<g id="edge52" class="edge">
<title>IA-&gt;AL</title>
<path fill="none" stroke="#000000" d="M921.3052,-234.1227C1139.4352,-235.1895 2592.8712,-243.9396 2673,-288 2715.3428,-311.283 2734,-329.678 2734,-378 2734,-522 2734,-522 2734,-522 2734,-695.6772 2886,-708.3228 2886,-882 2886,-1602 2886,-1602 2886,-1602 2886,-1659.8393 2845.2828,-1669.4983 2792,-1692 2721.6233,-1721.7205 1536.0426,-1741.8401 1309.3099,-1745.4254"></path>
<polygon fill="#000000" stroke="#000000" points="1309.1899,-1741.9268 1299.2462,-1745.5836 1309.3,-1748.9259 1309.1899,-1741.9268"></polygon>
</g>
<!-- IA&#45;&gt;AK -->
<g id="edge53" class="edge">
<title>IA-&gt;AK</title>
<path fill="none" stroke="#000000" d="M917.0613,-243.5353C936.3623,-252.5268 963.4835,-267.6593 981,-288 1075.2079,-397.3971 1090,-449.6294 1090,-594 1090,-666 1090,-666 1090,-666 1090,-1028.6667 1474,-1023.3333 1474,-1386 1474,-1458 1474,-1458 1474,-1458 1474,-1532.0464 2040.8833,-1585.8316 2192.8803,-1598.9221"></path>
<polygon fill="#000000" stroke="#000000" points="2192.8321,-1602.4306 2203.0936,-1599.794 2193.4275,-1595.456 2192.8321,-1602.4306"></polygon>
</g>
<!-- IA&#45;&gt;AS -->
<g id="edge54" class="edge">
<title>IA-&gt;AS</title>
<path fill="none" stroke="#000000" d="M921.1415,-231.8929C968.6961,-228.2553 1070.187,-220.7333 1156,-216 1653.7396,-188.5455 2259.6265,-168.2205 2415.1904,-163.2008"></path>
<polygon fill="#000000" stroke="#000000" points="2415.7228,-166.6856 2425.6052,-162.866 2415.4978,-159.6892 2415.7228,-166.6856"></polygon>
</g>
<!-- IA&#45;&gt;AR -->
<g id="edge56" class="edge">
<title>IA-&gt;AR</title>
<path fill="none" stroke="#000000" d="M867.6082,-238.1234C765.871,-255.5651 406.2974,-332.1916 437,-540 456.5432,-672.2769 462.076,-709.4904 524,-828 637.0787,-1044.4092 746.3201,-1038.0194 939,-1188 980.2493,-1220.1082 987.3166,-1232.8737 1032,-1260 1059.0605,-1276.4278 1091.9529,-1291.1934 1115.9622,-1301.1152"></path>
<polygon fill="#000000" stroke="#000000" points="1114.76,-1304.4046 1125.3417,-1304.932 1117.3985,-1297.9209 1114.76,-1304.4046"></polygon>
</g>
<!-- IA&#45;&gt;AZ -->
<g id="edge55" class="edge">
<title>IA-&gt;AZ</title>
<path fill="none" stroke="#000000" d="M878.9427,-218.7307C869.153,-208.803 856.2169,-195.6847 845.2503,-184.5637"></path>
<polygon fill="#000000" stroke="#000000" points="847.5492,-181.9102 838.0356,-177.2473 842.5649,-186.8252 847.5492,-181.9102"></polygon>
</g>
<!-- VT -->
<g id="node50" class="node">
<title>VT</title>
<ellipse fill="none" stroke="#000000" cx="2489" cy="-378" rx="27" ry="18"></ellipse>
<text text-anchor="middle" x="2489" y="-373.8" font-family="Times,serif" font-size="14.00" fill="#000000">VT</text>
</g>
<!-- NV&#45;&gt;VT -->
<g id="edge91" class="edge">
<title>NV-&gt;VT</title>
<path fill="none" stroke="#000000" d="M1723.8032,-874.8294C1754.0869,-865.679 1806.5181,-848.5486 1849,-828 2111.437,-701.0586 2383.6817,-470.6639 2464.8205,-399.5129"></path>
<polygon fill="#000000" stroke="#000000" points="2467.3025,-401.991 2472.4959,-392.7563 2462.6772,-396.7367 2467.3025,-401.991"></polygon>
</g>
<!-- VI -->
<g id="node51" class="node">
<title>VI</title>
<ellipse fill="none" stroke="#000000" cx="925" cy="-810" rx="27" ry="18"></ellipse>
<text text-anchor="middle" x="925" y="-805.8" font-family="Times,serif" font-size="14.00" fill="#000000">VI</text>
</g>
<!-- NV&#45;&gt;VI -->
<g id="edge92" class="edge">
<title>NV-&gt;VI</title>
<path fill="none" stroke="#000000" d="M1672.1003,-879.6307C1588.2924,-872.2316 1324.4298,-848.8062 1106,-828 1056.2152,-823.2578 998.7589,-817.4944 962.1749,-813.7881"></path>
<polygon fill="#000000" stroke="#000000" points="962.2809,-810.2809 951.9786,-812.7536 961.5742,-817.2452 962.2809,-810.2809"></polygon>
</g>
<!-- VA -->
<g id="node52" class="node">
<title>VA</title>
<ellipse fill="none" stroke="#000000" cx="2316" cy="-378" rx="27" ry="18"></ellipse>
<text text-anchor="middle" x="2316" y="-373.8" font-family="Times,serif" font-size="14.00" fill="#000000">VA</text>
</g>
<!-- NV&#45;&gt;VA -->
<g id="edge93" class="edge">
<title>NV-&gt;VA</title>
<path fill="none" stroke="#000000" d="M1720.9465,-871.3265C1775.527,-844.2458 1920.585,-768.9572 2026,-684 2140.1391,-592.0117 2253.1886,-456.6595 2296.9897,-402.1015"></path>
<polygon fill="#000000" stroke="#000000" points="2299.9081,-404.0559 2303.4145,-394.058 2294.4387,-399.6871 2299.9081,-404.0559"></polygon>
</g>
<!-- NH&#45;&gt;HI -->
<g id="edge94" class="edge">
<title>NH-&gt;HI</title>
<path fill="none" stroke="#000000" d="M955.8255,-503.9555C949.2035,-466.3144 933.8754,-379.1867 925.9478,-334.1246"></path>
<polygon fill="#000000" stroke="#000000" points="929.372,-333.3874 924.1922,-324.1451 922.4779,-334.6003 929.372,-333.3874"></polygon>
</g>
<!-- NM&#45;&gt;ME -->
<g id="edge95" class="edge">
<title>NM-&gt;ME</title>
<path fill="none" stroke="#000000" d="M1464.2854,-648.5708C1460.0403,-640.0807 1454.8464,-629.6929 1450.1337,-620.2674"></path>
<polygon fill="#000000" stroke="#000000" points="1453.237,-618.6477 1445.6343,-611.2687 1446.976,-621.7782 1453.237,-618.6477"></polygon>
</g>
<!-- NM&#45;&gt;MH -->
<g id="edge96" class="edge">
<title>NM-&gt;MH</title>
<path fill="none" stroke="#000000" d="M1452.0264,-654.5382C1447.1813,-652.1662 1441.9838,-649.8345 1437,-648 1374.2816,-624.9139 1353.7184,-635.0861 1291,-612 1289.1311,-611.3121 1287.2321,-610.5542 1285.333,-609.7505"></path>
<polygon fill="#000000" stroke="#000000" points="1286.5227,-606.4458 1275.9736,-605.4618 1283.6066,-612.8095 1286.5227,-606.4458"></polygon>
</g>
<!-- NM&#45;&gt;MD -->
<g id="edge97" class="edge">
<title>NM-&gt;MD</title>
<path fill="none" stroke="#000000" d="M1452.6023,-654.1249C1447.6412,-651.7134 1442.2488,-649.4686 1437,-648 1248.9013,-595.3691 1193.3332,-631.6393 999,-612 960.2501,-608.0839 915.9855,-602.6547 885.6414,-598.7853"></path>
<polygon fill="#000000" stroke="#000000" points="885.8848,-595.2879 875.5207,-597.4867 884.9939,-602.231 885.8848,-595.2879"></polygon>
</g>
<!-- NM&#45;&gt;MA -->
<g id="edge98" class="edge">
<title>NM-&gt;MA</title>
<path fill="none" stroke="#000000" d="M1452.1269,-654.2475C1447.2766,-651.8906 1442.0516,-649.6385 1437,-648 1343.5899,-617.7014 1312.4101,-642.2986 1219,-612 1217.1057,-611.3856 1215.1869,-610.6848 1213.2727,-609.9246"></path>
<polygon fill="#000000" stroke="#000000" points="1214.4331,-606.6105 1203.8731,-605.7525 1211.5932,-613.0085 1214.4331,-606.6105"></polygon>
</g>
<!-- NM&#45;&gt;MI -->
<g id="edge99" class="edge">
<title>NM-&gt;MI</title>
<path fill="none" stroke="#000000" d="M1452.1742,-654.0966C1447.3214,-651.7475 1442.0834,-649.5368 1437,-648 1312.6787,-610.4161 1275.5814,-630.3074 1147,-612 1121.5842,-608.3813 1093.0119,-603.7808 1071.0876,-600.1365"></path>
<polygon fill="#000000" stroke="#000000" points="1071.6507,-596.6822 1061.2103,-598.4848 1070.496,-603.5863 1071.6507,-596.6822"></polygon>
</g>
<!-- NM&#45;&gt;MN -->
<g id="edge100" class="edge">
<title>NM-&gt;MN</title>
<path fill="none" stroke="#000000" d="M1497.7144,-658.5347C1531.8409,-649.3362 1594.3451,-632.3947 1646,-612 1649.8753,-610.4699 1653.8983,-608.6761 1657.9037,-606.8245"></path>
<polygon fill="#000000" stroke="#000000" points="1659.5703,-609.9088 1667.1399,-602.4958 1656.5997,-603.5704 1659.5703,-609.9088"></polygon>
</g>
<!-- NM&#45;&gt;MS -->
<g id="edge101" class="edge">
<title>NM-&gt;MS</title>
<path fill="none" stroke="#000000" d="M1494.9372,-655.2892C1517.1558,-644.4273 1552.4994,-627.1114 1583,-612 1584.7375,-611.1391 1586.5214,-610.2534 1588.3211,-609.3583"></path>
<polygon fill="#000000" stroke="#000000" points="1589.9229,-612.4707 1597.3108,-604.8766 1586.7996,-606.206 1589.9229,-612.4707"></polygon>
</g>
<!-- NM&#45;&gt;MO -->
<g id="edge102" class="edge">
<title>NM-&gt;MO</title>
<path fill="none" stroke="#000000" d="M1474.5872,-647.9555C1477.8983,-610.3144 1485.5623,-523.1867 1489.5261,-478.1246"></path>
<polygon fill="#000000" stroke="#000000" points="1493.0141,-478.4133 1490.4039,-468.1451 1486.041,-477.7999 1493.0141,-478.4133"></polygon>
</g>
<!-- NM&#45;&gt;MT -->
<g id="edge103" class="edge">
<title>NM-&gt;MT</title>
<path fill="none" stroke="#000000" d="M1488.3328,-651.0816C1498.751,-640.945 1512.7078,-627.3654 1524.3947,-615.9944"></path>
<polygon fill="#000000" stroke="#000000" points="1526.9603,-618.3815 1531.6868,-608.8993 1522.0788,-613.3644 1526.9603,-618.3815"></polygon>
</g>
<!-- NM&#45;&gt;MP -->
<g id="edge104" class="edge">
<title>NM-&gt;MP</title>
<path fill="none" stroke="#000000" d="M1451.3108,-655.1234C1446.5962,-652.7681 1441.6334,-650.2956 1437,-648 1410.4311,-634.8365 1380.1873,-620.0003 1358.1454,-609.2145"></path>
<polygon fill="#000000" stroke="#000000" points="1359.4581,-605.9604 1348.9372,-604.7108 1356.3826,-612.2486 1359.4581,-605.9604"></polygon>
</g>
<!-- NC&#45;&gt;CA -->
<g id="edge105" class="edge">
<title>NC-&gt;CA</title>
<path fill="none" stroke="#000000" d="M2005.1979,-536.6783C1985.5602,-554.779 1950.8643,-586.3027 1920,-612 1729.6564,-770.4781 1480,-706.3188 1480,-954 1480,-1026 1480,-1026 1480,-1026 1480,-1161.0809 1390.6344,-1305.1505 1351.736,-1361.4619"></path>
<polygon fill="#000000" stroke="#000000" points="1348.8149,-1359.5316 1345.9478,-1369.7312 1354.5496,-1363.5458 1348.8149,-1359.5316"></polygon>
</g>
<!-- NC&#45;&gt;CO -->
<g id="edge106" class="edge">
<title>NC-&gt;CO</title>
<path fill="none" stroke="#000000" d="M2010.8096,-504.937C2005.6151,-496.2393 1999.1894,-485.4799 1993.4052,-475.7948"></path>
<polygon fill="#000000" stroke="#000000" points="1996.2496,-473.7314 1988.1173,-466.9405 1990.2398,-477.3206 1996.2496,-473.7314"></polygon>
</g>
<!-- NC&#45;&gt;CT -->
<g id="edge107" class="edge">
<title>NC-&gt;CT</title>
<path fill="none" stroke="#000000" d="M2036.4948,-537.1273C2045.9311,-547.2497 2057.4033,-561.3586 2064,-576 2196.7221,-870.578 2132.5576,-780.7401 2102,-828 2038.4891,-926.225 1925.5109,-837.775 1862,-936 1848.4687,-956.9273 1862.6383,-983.7589 1876.9888,-1002.6613"></path>
<polygon fill="#000000" stroke="#000000" points="1874.288,-1004.8879 1883.2823,-1010.4872 1879.7429,-1000.5011 1874.288,-1004.8879"></polygon>
</g>
<!-- ND&#45;&gt;DC -->
<g id="edge109" class="edge">
<title>ND-&gt;DC</title>
<path fill="none" stroke="#000000" d="M469.6018,-539.9283C463.229,-574.5647 449.7026,-653.1614 445,-720 439.3027,-800.9776 448.2534,-823.7114 476,-900 501.0841,-968.9681 552.951,-1039.1283 581.3532,-1074.5024"></path>
<polygon fill="#000000" stroke="#000000" points="578.6833,-1076.7668 587.7057,-1082.3208 584.1161,-1072.3526 578.6833,-1076.7668"></polygon>
</g>
<!-- ND&#45;&gt;DE -->
<g id="edge108" class="edge">
<title>ND-&gt;DE</title>
<path fill="none" stroke="#000000" d="M447.4909,-515.8501C417.377,-507.857 366.5252,-492.0162 328,-468 209.545,-394.1565 161.6329,-377.2431 100,-252 66.6134,-184.1556 68.9669,-92.0416 72.8262,-46.2551"></path>
<polygon fill="#000000" stroke="#000000" points="76.3227,-46.4545 73.7658,-36.1728 69.3529,-45.8049 76.3227,-46.4545"></polygon>
</g>
<!-- VT&#45;&gt;TN -->
<g id="edge146" class="edge">
<title>VT-&gt;TN</title>
<path fill="none" stroke="#000000" d="M2499.8662,-394.5031C2515.8949,-420.4856 2544,-473.0265 2544,-522 2544,-594 2544,-594 2544,-594 2544,-874.9214 2072.1038,-938.6194 1934.9583,-951.1998"></path>
<polygon fill="#000000" stroke="#000000" points="1934.59,-947.7186 1924.9354,-952.0819 1935.2037,-954.6916 1934.59,-947.7186"></polygon>
</g>
<!-- VT&#45;&gt;TX -->
<g id="edge147" class="edge">
<title>VT-&gt;TX</title>
<path fill="none" stroke="#000000" d="M2510.8379,-367.3762C2535.9778,-355.1459 2577.4601,-334.9654 2605.9508,-321.105"></path>
<polygon fill="#000000" stroke="#000000" points="2607.6113,-324.1895 2615.0725,-316.6674 2604.549,-317.8948 2607.6113,-324.1895"></polygon>
</g>
<!-- VI&#45;&gt;ID -->
<g id="edge148" class="edge">
<title>VI-&gt;ID</title>
<path fill="none" stroke="#000000" d="M920.6488,-828.0621C914.4978,-855.2213 904,-908.2714 904,-954 904,-1026 904,-1026 904,-1026 904,-1122.3701 762.2188,-1155.3325 693.06,-1165.6786"></path>
<polygon fill="#000000" stroke="#000000" points="692.4242,-1162.2336 683.0124,-1167.0987 693.4039,-1169.1647 692.4242,-1162.2336"></polygon>
</g>
<!-- VI&#45;&gt;IL -->
<g id="edge149" class="edge">
<title>VI-&gt;IL</title>
<path fill="none" stroke="#000000" d="M902.3478,-800.0354C850.7247,-776.0331 724.3188,-709.6803 666,-612 597.6007,-497.4356 607.824,-328.6512 615.2252,-262.2803"></path>
<polygon fill="#000000" stroke="#000000" points="618.7216,-262.5169 616.421,-252.1748 611.77,-261.6942 618.7216,-262.5169"></polygon>
</g>
<!-- VI&#45;&gt;IN -->
<g id="edge150" class="edge">
<title>VI-&gt;IN</title>
<path fill="none" stroke="#000000" d="M940.2693,-794.7307C950.197,-784.803 963.3153,-771.6847 974.4363,-760.5637"></path>
<polygon fill="#000000" stroke="#000000" points="977.1564,-762.7933 981.7527,-753.2473 972.2067,-757.8436 977.1564,-762.7933"></polygon>
</g>
<!-- VI&#45;&gt;IA -->
<g id="edge151" class="edge">
<title>VI-&gt;IA</title>
<path fill="none" stroke="#000000" d="M911.906,-793.8222C886.7664,-761.5963 832.5036,-686.0932 813,-612 808.927,-596.5271 807.0888,-590.868 813,-576 821.1308,-555.5492 836.7895,-559.4959 847,-540 865.9669,-503.7845 866,-490.8816 866,-450 866,-450 866,-450 866,-378 866,-336.9444 877.1026,-290.4951 885.3252,-261.7243"></path>
<polygon fill="#000000" stroke="#000000" points="888.731,-262.5486 888.1984,-251.9672 882.0161,-260.5712 888.731,-262.5486"></polygon>
</g>
<!-- VA&#45;&gt;AL -->
<g id="edge152" class="edge">
<title>VA-&gt;AL</title>
<path fill="none" stroke="#000000" d="M2335.7188,-390.8968C2365.182,-411.2533 2420.2943,-453.7301 2449,-504 2481.559,-561.0177 2473.993,-582.831 2482,-648 2488.3425,-699.6214 2476.0417,-1066.1879 2491,-1116 2553.6264,-1324.5503 2753,-1312.2494 2753,-1530 2753,-1602 2753,-1602 2753,-1602 2753,-1676.8578 1538.5543,-1734.2234 1309.1409,-1744.3922"></path>
<polygon fill="#000000" stroke="#000000" points="1308.8059,-1740.9035 1298.9698,-1744.8406 1309.1143,-1747.8967 1308.8059,-1740.9035"></polygon>
</g>
<!-- VA&#45;&gt;AK -->
<g id="edge153" class="edge">
<title>VA-&gt;AK</title>
<path fill="none" stroke="#000000" d="M2323.9897,-395.4375C2343.5024,-439.6716 2392,-560.2497 2392,-666 2392,-882 2392,-882 2392,-882 2392,-1158.6299 2276.77,-1480.7827 2240.6762,-1574.9061"></path>
<polygon fill="#000000" stroke="#000000" points="2237.3026,-1573.9263 2236.9609,-1584.5156 2243.8316,-1576.4506 2237.3026,-1573.9263"></polygon>
</g>
<!-- VA&#45;&gt;AS -->
<g id="edge154" class="edge">
<title>VA-&gt;AS</title>
<path fill="none" stroke="#000000" d="M2317.7621,-359.8088C2320.1881,-340.9272 2325.7419,-310.9945 2338,-288 2360.853,-245.1308 2401.634,-205.4681 2427.986,-182.503"></path>
<polygon fill="#000000" stroke="#000000" points="2430.3462,-185.0899 2435.6651,-175.9269 2425.793,-179.773 2430.3462,-185.0899"></polygon>
</g>
<!-- VA&#45;&gt;AR -->
<g id="edge156" class="edge">
<title>VA-&gt;AR</title>
<path fill="none" stroke="#000000" d="M2316.5185,-396.0242C2317.6378,-473.4504 2310.4854,-779.3476 2134,-900 2026.624,-973.4065 1982.2192,-958.3465 1862,-1008 1597.5257,-1117.2344 1281.0304,-1255.8824 1180.9513,-1299.9162"></path>
<polygon fill="#000000" stroke="#000000" points="1179.4258,-1296.7635 1171.6834,-1303.9958 1182.246,-1303.1703 1179.4258,-1296.7635"></polygon>
</g>
<!-- VA&#45;&gt;AZ -->
<g id="edge155" class="edge">
<title>VA-&gt;AZ</title>
<path fill="none" stroke="#000000" d="M2289.4525,-374.1592C2109.4875,-348.1228 1069.1827,-197.6165 859.7349,-167.3146"></path>
<polygon fill="#000000" stroke="#000000" points="859.9705,-163.8124 849.5724,-165.8444 858.9681,-170.7402 859.9705,-163.8124"></polygon>
</g>
<!-- WA -->
<g id="node56" class="node">
<title>WA</title>
<ellipse fill="none" stroke="#000000" cx="790" cy="-450" rx="27.2467" ry="18"></ellipse>
<text text-anchor="middle" x="790" y="-445.8" font-family="Times,serif" font-size="14.00" fill="#000000">WA</text>
</g>
<!-- PW&#45;&gt;WA -->
<g id="edge117" class="edge">
<title>PW-&gt;WA</title>
<path fill="none" stroke="#000000" d="M1249.5254,-518.0778C1167.9883,-505.9983 920.5321,-469.3381 826.6505,-455.4297"></path>
<polygon fill="#000000" stroke="#000000" points="826.9036,-451.9291 816.4986,-453.9257 825.8777,-458.8535 826.9036,-451.9291"></polygon>
</g>
<!-- WV -->
<g id="node57" class="node">
<title>WV</title>
<ellipse fill="none" stroke="#000000" cx="2170" cy="-450" rx="27.2467" ry="18"></ellipse>
<text text-anchor="middle" x="2170" y="-445.8" font-family="Times,serif" font-size="14.00" fill="#000000">WV</text>
</g>
<!-- PW&#45;&gt;WV -->
<g id="edge118" class="edge">
<title>PW-&gt;WV</title>
<path fill="none" stroke="#000000" d="M1303.1748,-520.4234C1399.944,-514.7217 1736.7748,-494.1246 2014,-468 2054.8467,-464.1508 2101.578,-458.6069 2133.1603,-454.691"></path>
<polygon fill="#000000" stroke="#000000" points="2133.7703,-458.1421 2143.2597,-453.4301 2132.9031,-451.196 2133.7703,-458.1421"></polygon>
</g>
<!-- WI -->
<g id="node58" class="node">
<title>WI</title>
<ellipse fill="none" stroke="#000000" cx="718" cy="-450" rx="27" ry="18"></ellipse>
<text text-anchor="middle" x="718" y="-445.8" font-family="Times,serif" font-size="14.00" fill="#000000">WI</text>
</g>
<!-- PW&#45;&gt;WI -->
<g id="edge119" class="edge">
<title>PW-&gt;WI</title>
<path fill="none" stroke="#000000" d="M1248.9934,-520.4907C1155.8522,-515.0856 848.5826,-495.5425 754,-468 751.8741,-467.3809 749.7229,-466.6393 747.5852,-465.815"></path>
<polygon fill="#000000" stroke="#000000" points="748.9842,-462.6068 738.4205,-461.795 746.1723,-469.0172 748.9842,-462.6068"></polygon>
</g>
<!-- WY -->
<g id="node59" class="node">
<title>WY</title>
<ellipse fill="none" stroke="#000000" cx="1276" cy="-450" rx="27.2467" ry="18"></ellipse>
<text text-anchor="middle" x="1276" y="-445.8" font-family="Times,serif" font-size="14.00" fill="#000000">WY</text>
</g>
<!-- PW&#45;&gt;WY -->
<g id="edge120" class="edge">
<title>PW-&gt;WY</title>
<path fill="none" stroke="#000000" d="M1276,-503.8314C1276,-496.131 1276,-486.9743 1276,-478.4166"></path>
<polygon fill="#000000" stroke="#000000" points="1279.5001,-478.4132 1276,-468.4133 1272.5001,-478.4133 1279.5001,-478.4132"></polygon>
</g>
<!-- PA&#45;&gt;AL -->
<g id="edge121" class="edge">
<title>PA-&gt;AL</title>
<path fill="none" stroke="#000000" d="M2423.8662,-538.5031C2439.8949,-564.4856 2468,-617.0265 2468,-666 2468,-882 2468,-882 2468,-882 2468,-986.5012 2445.8659,-1021.7482 2491,-1116 2560.0915,-1260.2813 2667.4974,-1229.7609 2748,-1368 2785.4874,-1432.3734 2791,-1455.5068 2791,-1530 2791,-1602 2791,-1602 2791,-1602 2791,-1643.3978 2799.3674,-1666.1905 2767,-1692 2708.28,-1738.8229 1534.8728,-1745.1183 1309.3202,-1745.8967"></path>
<polygon fill="#000000" stroke="#000000" points="1308.9986,-1742.3977 1299.0102,-1745.9307 1309.0217,-1749.3976 1308.9986,-1742.3977"></polygon>
</g>
<!-- PA&#45;&gt;AK -->
<g id="edge122" class="edge">
<title>PA-&gt;AK</title>
<path fill="none" stroke="#000000" d="M2416.5224,-540.1045C2421.5018,-567.3176 2430,-620.4358 2430,-666 2430,-882 2430,-882 2430,-882 2430,-979.182 2396,-1000.818 2396,-1098 2396,-1242 2396,-1242 2396,-1242 2396,-1385.078 2376.8424,-1429.95 2296,-1548 2286.1873,-1562.3289 2271.5096,-1574.8644 2258.4857,-1584.2414"></path>
<polygon fill="#000000" stroke="#000000" points="2256.4773,-1581.3748 2250.2337,-1589.9345 2260.4525,-1587.1367 2256.4773,-1581.3748"></polygon>
</g>
<!-- PA&#45;&gt;AS -->
<g id="edge123" class="edge">
<title>PA-&gt;AS</title>
<path fill="none" stroke="#000000" d="M2437.5741,-514.0419C2484.4458,-497.1455 2582,-452.9734 2582,-378 2582,-378 2582,-378 2582,-306 2582,-246.9606 2521.0977,-201.0696 2482.9854,-178.1315"></path>
<polygon fill="#000000" stroke="#000000" points="2484.7025,-175.0811 2474.3017,-173.0623 2481.1734,-181.1265 2484.7025,-175.0811"></polygon>
</g>
<!-- PA&#45;&gt;AR -->
<g id="edge125" class="edge">
<title>PA-&gt;AR</title>
<path fill="none" stroke="#000000" d="M2409.9377,-540.1707C2399.13,-599.228 2357.6864,-788.3692 2254,-900 1944.6247,-1233.0792 1341.3464,-1299.7881 1186.1245,-1311.6497"></path>
<polygon fill="#000000" stroke="#000000" points="1185.8602,-1308.1596 1176.1436,-1312.383 1186.3732,-1315.1408 1185.8602,-1308.1596"></polygon>
</g>
<!-- PA&#45;&gt;AZ -->
<g id="edge124" class="edge">
<title>PA-&gt;AZ</title>
<path fill="none" stroke="#000000" d="M2419.6884,-504.449C2434.9103,-461.1784 2466.6283,-348.5196 2410,-288 2355.1936,-229.4275 1094.3754,-173.4563 860.2344,-163.5481"></path>
<polygon fill="#000000" stroke="#000000" points="860.3129,-160.0484 850.1743,-163.1241 860.018,-167.0422 860.3129,-160.0484"></polygon>
</g>
<!-- PR&#45;&gt;RI -->
<g id="edge126" class="edge">
<title>PR-&gt;RI</title>
<path fill="none" stroke="#000000" d="M786.6128,-530.1325C724.6429,-552.5055 566,-621.1878 566,-738 566,-882 566,-882 566,-882 566,-995.4204 680.9687,-976.3404 727,-1080 746.4042,-1123.6969 751.1068,-1179.813 752.0471,-1213.227"></path>
<polygon fill="#000000" stroke="#000000" points="748.5551,-1213.7033 752.2375,-1223.6376 755.5539,-1213.5752 748.5551,-1213.7033"></polygon>
</g>
<!-- WA&#45;&gt;AL -->
<g id="edge157" class="edge">
<title>WA-&gt;AL</title>
<path fill="none" stroke="#000000" d="M781.8024,-467.5733C777.4032,-477.9311 772.4032,-491.4311 770,-504 701.9872,-859.7058 752.4951,-721.8951 765,-756 793.8761,-834.7542 831.3642,-837.225 887,-900 921.3661,-938.776 1204,-1190.1868 1204,-1242 1204,-1602 1204,-1602 1204,-1602 1204,-1647.6536 1232.2928,-1694.325 1252.3786,-1721.706"></path>
<polygon fill="#000000" stroke="#000000" points="1249.7438,-1724.0246 1258.5654,-1729.8924 1255.3284,-1719.8041 1249.7438,-1724.0246"></polygon>
</g>
<!-- WA&#45;&gt;AK -->
<g id="edge158" class="edge">
<title>WA-&gt;AK</title>
<path fill="none" stroke="#000000" d="M783.7616,-467.7448C780.4321,-478.1598 776.6821,-491.6598 775,-504 772.839,-519.8534 772.5862,-524.1831 775,-540 795.2316,-672.5695 793.1365,-714.7762 865,-828 1035.564,-1096.7303 1391,-995.7107 1391,-1314 1391,-1458 1391,-1458 1391,-1458 1391,-1508.4028 1415.608,-1524.1296 1460,-1548 1524.9136,-1582.9052 2046.8965,-1597.697 2192.442,-1601.1673"></path>
<polygon fill="#000000" stroke="#000000" points="2192.5692,-1604.6712 2202.6485,-1601.4067 2192.7334,-1597.6731 2192.5692,-1604.6712"></polygon>
</g>
<!-- WA&#45;&gt;AS -->
<g id="edge159" class="edge">
<title>WA-&gt;AS</title>
<path fill="none" stroke="#000000" d="M815.4613,-443.4152C906.8743,-419.9312 1227.2886,-338.9728 1495,-288 1704.7543,-248.0623 1758.3037,-243.8675 1970,-216 2136.1252,-194.1315 2335.1577,-173.6967 2416.0798,-165.6304"></path>
<polygon fill="#000000" stroke="#000000" points="2416.6467,-169.0914 2426.2516,-164.6197 2415.9545,-162.1257 2416.6467,-169.0914"></polygon>
</g>
<!-- WA&#45;&gt;AR -->
<g id="edge161" class="edge">
<title>WA-&gt;AR</title>
<path fill="none" stroke="#000000" d="M768.4251,-461.1176C763.7034,-463.4578 758.7088,-465.8633 754,-468 649.2769,-515.52 528,-478.9996 528,-594 528,-810 528,-810 528,-810 528,-829.4938 1006.1256,-1202.8217 1123.3087,-1294.0273"></path>
<polygon fill="#000000" stroke="#000000" points="1121.3733,-1296.9561 1131.415,-1300.3346 1125.6719,-1291.4314 1121.3733,-1296.9561"></polygon>
</g>
<!-- WA&#45;&gt;AZ -->
<g id="edge160" class="edge">
<title>WA-&gt;AZ</title>
<path fill="none" stroke="#000000" d="M792.0643,-431.9843C797.6434,-383.2939 813.0546,-248.7961 819.7851,-190.0573"></path>
<polygon fill="#000000" stroke="#000000" points="823.2753,-190.3423 820.9365,-180.0089 816.3208,-189.5454 823.2753,-190.3423"></polygon>
</g>
<!-- WV&#45;&gt;VT -->
<g id="edge162" class="edge">
<title>WV-&gt;VT</title>
<path fill="none" stroke="#000000" d="M2195.8349,-444.1689C2252.7156,-431.3306 2388.8526,-400.6038 2453.6116,-385.9874"></path>
<polygon fill="#000000" stroke="#000000" points="2454.3851,-389.4009 2463.3691,-383.785 2452.8438,-382.5727 2454.3851,-389.4009"></polygon>
</g>
<!-- WV&#45;&gt;VI -->
<g id="edge163" class="edge">
<title>WV-&gt;VI</title>
<path fill="none" stroke="#000000" d="M2153.5258,-464.769C2132.1658,-483.522 2093.3349,-516.2864 2057,-540 1999.3967,-577.5941 1981.7654,-581.7263 1920,-612 1850.7062,-645.9637 1835.9804,-662.0442 1762,-684 1461.4931,-773.1838 1080.6472,-801.2253 961.9908,-808.0973"></path>
<polygon fill="#000000" stroke="#000000" points="961.76,-804.6047 951.9732,-808.6628 962.1546,-811.5936 961.76,-804.6047"></polygon>
</g>
<!-- WV&#45;&gt;VA -->
<g id="edge164" class="edge">
<title>WV-&gt;VA</title>
<path fill="none" stroke="#000000" d="M2191.8577,-439.2209C2216.4787,-427.079 2256.6978,-407.2449 2284.6594,-393.4556"></path>
<polygon fill="#000000" stroke="#000000" points="2286.5722,-396.4148 2293.9929,-388.8528 2283.4761,-390.1367 2286.5722,-396.4148"></polygon>
</g>
<!-- WI&#45;&gt;ID -->
<g id="edge165" class="edge">
<title>WI-&gt;ID</title>
<path fill="none" stroke="#000000" d="M690.6559,-451.6182C627.4114,-455.9153 473.6348,-469.7168 437,-504 310.197,-622.6634 338,-708.3337 338,-882 338,-954 338,-954 338,-954 338,-995.3978 334.9135,-1012.6934 362,-1044 430.351,-1123 557.0028,-1153.9338 619.3646,-1164.7843"></path>
<polygon fill="#000000" stroke="#000000" points="619.08,-1168.2849 629.5185,-1166.4712 620.2273,-1161.3796 619.08,-1168.2849"></polygon>
</g>
<!-- WI&#45;&gt;IL -->
<g id="edge166" class="edge">
<title>WI-&gt;IL</title>
<path fill="none" stroke="#000000" d="M711.7807,-432.0855C701.0187,-401.7667 677.604,-338.6918 652,-288 647.1472,-278.3922 641.1757,-268.2296 635.6525,-259.344"></path>
<polygon fill="#000000" stroke="#000000" points="638.4346,-257.1955 630.1246,-250.6232 632.5223,-260.9432 638.4346,-257.1955"></polygon>
</g>
<!-- WI&#45;&gt;IN -->
<g id="edge167" class="edge">
<title>WI-&gt;IN</title>
<path fill="none" stroke="#000000" d="M725.264,-467.7159C738.8886,-499.3999 770.7572,-566.6887 813,-612 858.6345,-660.9494 926.5291,-701.2404 965.819,-722.2495"></path>
<polygon fill="#000000" stroke="#000000" points="964.6818,-725.6062 975.1608,-727.1688 967.9434,-719.4125 964.6818,-725.6062"></polygon>
</g>
<!-- WI&#45;&gt;IA -->
<g id="edge168" class="edge">
<title>WI-&gt;IA</title>
<path fill="none" stroke="#000000" d="M730.9417,-434.117C761.5188,-396.5905 838.3727,-302.2699 874.5705,-257.8453"></path>
<polygon fill="#000000" stroke="#000000" points="877.4359,-259.8695 881.0393,-249.9063 872.0092,-255.4478 877.4359,-259.8695"></polygon>
</g>
</g>
</svg>