<?xml version="1.0" encoding="UTF-8" standalone="no"?>
<!DOCTYPE svg PUBLIC "-//W3C//DTD SVG 1.1//EN" "http://www.w3.org/Graphics/SVG/1.1/DTD/svg11.dtd">
<!-- Generated by Microsoft Visio, SVG Export points.svg Page-1 -->
<svg xmlns="http://www.w3.org/2000/svg" xmlns:xlink="http://www.w3.org/1999/xlink" xmlns:ev="http://www.w3.org/2001/xml-events"
		xmlns:v="http://schemas.microsoft.com/visio/2003/SVGExtensions/" width="8.26772in" height="11.6929in"
		viewBox="0 0 595.276 841.89" xml:space="preserve" color-interpolation-filters="sRGB" class="st3">
	<v:documentProperties v:langID="1033" v:metric="true" v:viewMarkup="false">
		<v:userDefs>
			<v:ud v:nameU="msvNoAutoConnect" v:val="VT0(1):26"/>
		</v:userDefs>
	</v:documentProperties>

	<style type="text/css">
	<![CDATA[
		.st1 {stroke:#000000;stroke-linecap:round;stroke-linejoin:round;stroke-width:0.75}
		.st2 {fill:#ffffff;stroke:#000000;stroke-linecap:round;stroke-linejoin:round;stroke-width:0.24}
		.st3 {fill:none;fill-rule:evenodd;font-size:12px;overflow:visible;stroke-linecap:square;stroke-miterlimit:3}
	]]>
	</style>

	<g v:mID="0" v:index="1" v:groupContext="foregroundPage">
		<title>Page-1</title>
		<v:pageProperties v:drawingScale="0.0393701" v:pageScale="0.0393701" v:drawingUnits="24" v:shadowOffsetX="8.50394"
				v:shadowOffsetY="-8.50394"/>
		<v:layer v:name="Connector" v:index="0"/>
		<g id="shape13-1" v:mID="13" v:groupContext="shape" transform="translate(-128.418,-393.329) rotate(-21.8014)">
			<title>Sheet.13</title>
			<path d="M0 841.89 L76.33 841.89" class="st1"/>
		</g>
		<g id="shape11-4" v:mID="11" v:groupContext="shape" transform="translate(496.922,-535.061) rotate(21.8014)">
			<title>Sheet.11</title>
			<path d="M0 841.89 L76.33 841.89" class="st1"/>
		</g>
		<g id="shape12-7" v:mID="12" v:groupContext="shape" transform="translate(638.654,1028.29) rotate(158.199)">
			<title>Sheet.12</title>
			<path d="M0 841.89 L76.33 841.89" class="st1"/>
		</g>
		<g id="shape14-10" v:mID="14" v:groupContext="shape" transform="translate(13.3143,1170.02) rotate(-158.199)">
			<title>Sheet.14</title>
			<path d="M0 841.89 L76.33 841.89" class="st1"/>
		</g>
		<g id="shape1-13" v:mID="1" v:groupContext="shape" transform="translate(179.291,-590.315)">
			<title>Circle</title>
			<v:userDefs>
				<v:ud v:nameU="visVersion" v:val="VT0(15):26"/>
			</v:userDefs>
			<path d="M0 836.93 A4.96063 4.96063 0 1 1 9.92 836.93 A4.96063 4.96063 0 1 1 -0 836.93 Z" class="st2"/>
		</g>
		<g id="shape2-15" v:mID="2" v:groupContext="shape" transform="translate(321.024,-590.315)">
			<title>Circle.2</title>
			<v:userDefs>
				<v:ud v:nameU="visVersion" v:val="VT0(15):26"/>
			</v:userDefs>
			<path d="M0 836.93 A4.96063 4.96063 0 1 1 9.92 836.93 A4.96063 4.96063 0 1 1 -0 836.93 Z" class="st2"/>
		</g>
		<g id="shape3-17" v:mID="3" v:groupContext="shape" transform="translate(179.291,-448.583)">
			<title>Circle.3</title>
			<v:userDefs>
				<v:ud v:nameU="visVersion" v:val="VT0(15):26"/>
			</v:userDefs>
			<path d="M0 836.93 A4.96063 4.96063 0 1 1 9.92 836.93 A4.96063 4.96063 0 1 1 -0 836.93 Z" class="st2"/>
		</g>
		<g id="shape4-19" v:mID="4" v:groupContext="shape" transform="translate(321.024,-448.583)">
			<title>Circle.4</title>
			<v:userDefs>
				<v:ud v:nameU="visVersion" v:val="VT0(15):26"/>
			</v:userDefs>
			<path d="M0 836.93 A4.96063 4.96063 0 1 1 9.92 836.93 A4.96063 4.96063 0 1 1 -0 836.93 Z" class="st2"/>
		</g>
		<g id="shape15-21" v:mID="15" v:groupContext="shape" transform="translate(1097.01,274.961) rotate(90)">
			<title>Sheet.15</title>
			<path d="M0 841.89 L85.04 841.89" class="st1"/>
		</g>
	</g>
</svg>
